<svg width="1351" height="250" viewBox="0 0 1351 250" fill="none" xmlns="http://www.w3.org/2000/svg">
<path d="M1154.45 134.969C1155.87 137.619 1156.76 140.529 1157.07 143.532C1157.39 146.535 1157.12 149.572 1156.3 152.471C1155.47 155.369 1154.09 158.072 1152.24 160.424C1150.39 162.777 1148.11 164.733 1145.53 166.182C1142.94 167.63 1140.1 168.543 1137.17 168.867C1134.24 169.191 1131.28 168.92 1128.45 168.07C1125.62 167.22 1122.99 165.808 1120.69 163.914C1118.4 162.02 1116.49 159.68 1115.08 157.03L1134.76 145.999L1154.45 134.969Z" fill="#7FCB21" stroke="#005A53"/>
<rect width="13.8214" height="13.8383" transform="matrix(0.715811 0.698294 -0.680382 0.732858 1340.26 19)" fill="#5DC3BC"/>
<rect width="38.1937" height="38.2405" transform="matrix(0.715811 0.698294 -0.680382 0.732858 1223.52 0)" fill="#FF6645"/>
<path d="M1311.81 74.5C1311.81 85.5574 1303.07 94.5 1292.31 94.5C1281.56 94.5 1272.81 85.5574 1272.81 74.5C1272.81 63.4426 1281.56 54.5 1292.31 54.5C1303.07 54.5 1311.81 63.4426 1311.81 74.5Z" fill="white" stroke="#E0ECF5"/>
<ellipse cx="1267.92" cy="242.5" rx="6.34103" ry="6.5" stroke="#001139"/>
<ellipse cx="1247.44" cy="217.5" rx="13.1698" ry="13.5" fill="#FFB34D"/>
<ellipse cx="163.609" cy="242.5" rx="6.34103" ry="6.5" stroke="#001139"/>
<path d="M50.1383 134.969C51.5514 137.619 52.4414 140.529 52.7575 143.532C53.0736 146.535 52.8096 149.572 51.9806 152.471C51.1515 155.369 49.7737 158.072 47.9257 160.424C46.0778 162.777 43.7958 164.733 41.2103 166.182C38.6247 167.63 35.7861 168.543 32.8566 168.867C29.9271 169.191 26.964 168.92 24.1365 168.07C21.309 167.22 18.6724 165.808 16.3774 163.914C14.0824 162.02 12.1739 159.68 10.7608 157.03L30.4495 145.999L50.1383 134.969Z" fill="#1CAA75" stroke="#005A53"/>
<rect width="13.8214" height="13.8383" transform="matrix(0.715811 0.698294 -0.680382 0.732858 235.948 19)" fill="#5DC3BC"/>
<rect width="38.1937" height="38.2405" transform="matrix(0.715811 0.698294 -0.680382 0.732858 119.207 0)" fill="#5046C7"/>
<path d="M207.497 74.5C207.497 85.5574 198.755 94.5 187.998 94.5C177.241 94.5 168.499 85.5574 168.499 74.5C168.499 63.4426 177.241 54.5 187.998 54.5C198.755 54.5 207.497 63.4426 207.497 74.5Z" fill="white" stroke="#E0ECF5"/>
<ellipse cx="143.123" cy="217.5" rx="13.1698" ry="13.5" fill="#FFB34D"/>
</svg>
