<svg width="586" height="581" viewBox="0 0 586 581" fill="none" xmlns="http://www.w3.org/2000/svg">
<path d="M0.771054 220.63C0.771054 216.847 4.27476 214.038 7.96714 214.86L203.533 258.401L196.584 433.863C196.495 436.119 194.239 437.639 192.114 436.874L0.771054 368.021V220.63Z" fill="white" stroke="#80CC23" stroke-width="1.54211"/>
<path d="M13.8796 312.018L35.9832 318.957V362.907L13.8796 353.911V312.018Z" fill="#199164"/>
<path d="M47.8052 282.721L72.2219 289.403V373.962L47.8052 366.252V282.721Z" fill="#FEC300"/>
<path d="M82.2493 273.467L106.666 280.149V386.298L82.2493 378.587V273.467Z" fill="#199164"/>
<path d="M116.684 267.555L141.1 274.237V394.007L116.684 386.297V267.555Z" fill="#199164"/>
<path d="M58.6259 291.934C58.7798 291.461 59.4498 291.461 59.6036 291.934L60.8459 295.758C60.9147 295.969 61.1121 296.113 61.3348 296.113H65.3547C65.8527 296.113 66.0597 296.75 65.6569 297.043L62.4047 299.406C62.2245 299.536 62.1491 299.768 62.2179 299.98L63.4602 303.803C63.614 304.277 63.072 304.671 62.6691 304.378L59.4169 302.015C59.2367 301.884 58.9928 301.884 58.8126 302.015L55.5604 304.378C55.1575 304.671 54.6155 304.277 54.7694 303.803L56.0116 299.98C56.0804 299.768 56.005 299.536 55.8249 299.406L52.5726 297.043C52.1698 296.75 52.3768 296.113 52.8748 296.113H56.8948C57.1175 296.113 57.3148 295.969 57.3836 295.758L58.6259 291.934Z" fill="white"/>
<path d="M51.1509 260.102V221.292V216.923H38.043V221.292V260.102H51.1509Z" fill="#E5ECD3"/>
<path d="M50.6324 217.18L39.3236 202.016L27.7578 217.18H32.6412V255.989H45.7491V217.18H50.6324Z" fill="#FEC300"/>
<path d="M136.988 227.851C136.988 226.79 137.456 225.783 138.268 225.099L269.376 114.706C270.024 114.16 270.845 113.86 271.693 113.86H299.423C301.41 113.86 303.021 115.471 303.021 117.459V271.657C303.021 273.926 300.949 275.628 298.724 275.187L139.887 243.715C138.202 243.381 136.988 241.903 136.988 240.185V227.851Z" fill="#CCE5D4"/>
<path d="M113.856 84.1717C113.856 82.4973 115.303 81.1898 116.969 81.359L289.428 98.8763C290.872 99.0229 291.97 100.238 291.97 101.689V256.25C291.97 258.028 290.348 259.365 288.602 259.025L116.144 225.471C114.815 225.213 113.856 224.049 113.856 222.696V84.1717Z" fill="white" stroke="#FEC300" stroke-width="1.54211"/>
<path d="M135.438 110.258C143.663 102.663 152.404 115.141 146.233 120.281L148.806 122.852C150.605 124.908 147.778 127.478 145.978 125.165C145.207 124.308 143.663 122.543 143.663 122.337C133.385 123.879 132.099 113.341 135.438 110.258Z" stroke="#FEC712" stroke-width="1.02807"/>
<path d="M122.849 96.7738C122.849 94.944 124.433 93.5166 126.253 93.7062L279.263 109.645C280.895 109.815 282.109 111.234 282.023 112.873L279.838 154.837C279.743 156.659 278.095 158.001 276.291 157.725L125.467 134.635C123.961 134.404 122.849 133.109 122.849 131.586V96.7738Z" stroke="#FEC300" stroke-width="1.02807"/>
<path d="M127.271 177.81C125.764 177.581 124.65 176.285 124.65 174.76V147.599C124.65 145.711 126.331 144.266 128.197 144.55L198.877 155.28C200.384 155.509 201.498 156.805 201.498 158.329V185.491C201.498 187.378 199.818 188.823 197.951 188.54L127.271 177.81Z" stroke="#FEC300" stroke-width="1.02807"/>
<path d="M122.335 210.22C122.335 212.002 123.64 213.516 125.404 213.779L197.626 224.53C199.8 224.854 201.754 223.17 201.754 220.971V196.891C201.754 195.108 200.449 193.594 198.685 193.332L126.463 182.58C124.289 182.257 122.335 183.941 122.335 186.139V210.22Z" fill="#FEF8E5"/>
<path d="M157.859 118.794C158.23 115.543 161.159 113.204 164.411 113.563L195.586 116.997C198.856 117.357 201.211 120.306 200.838 123.575C200.466 126.826 197.537 129.165 194.285 128.806L163.11 125.372C159.84 125.012 157.485 122.063 157.859 118.794Z" stroke="#FEC713" stroke-width="1.02807"/>
<rect x="166.827" y="117.847" width="67.022" height="2.57018" rx="1.28509" transform="rotate(6.40665 166.827 117.847)" fill="#FEC713"/>
<rect x="216.478" y="197.247" width="63.7457" height="1.92333" rx="0.961666" transform="rotate(9.3267 216.478 197.247)" fill="#FEC713"/>
<rect x="216.717" y="203.557" width="63.765" height="1.92333" rx="0.961666" transform="rotate(9.3267 216.717 203.557)" fill="#FEC713"/>
<rect x="216.717" y="209.725" width="63.765" height="1.92333" rx="0.961666" transform="rotate(9.3267 216.717 209.725)" fill="#FEC713"/>
<rect x="217.752" y="216.92" width="62.225" height="1.92333" rx="0.961666" transform="rotate(9.3267 217.752 216.92)" fill="#FEC713"/>
<rect x="217.233" y="223.604" width="34.7045" height="1.92333" rx="0.961666" transform="rotate(9.3267 217.233 223.604)" fill="#FEC713"/>
<rect x="217.233" y="229.257" width="34.7045" height="1.92333" rx="0.961666" transform="rotate(9.3267 217.233 229.257)" fill="#FEC713"/>
<path d="M239.541 148.906C239.541 147.358 240.9 146.161 242.436 146.357L275.591 150.584C276.875 150.748 277.836 151.84 277.836 153.134V189.036C277.836 190.598 276.454 191.799 274.908 191.581L241.752 186.908C240.484 186.729 239.541 185.644 239.541 184.363V148.906Z" fill="#E6F2EA"/>
<path d="M233.37 140.681C233.37 139.133 234.729 137.936 236.265 138.132L269.42 142.36C270.704 142.523 271.665 143.616 271.665 144.909V180.811C271.665 182.373 270.283 183.574 268.736 183.356L235.581 178.683C234.313 178.504 233.37 177.419 233.37 176.138V140.681Z" fill="#FEC300"/>
<path d="M270.381 182.739C255.474 171.43 259.843 160.379 263.184 156.523M271.666 149.07C268.787 149.07 265.326 153.182 263.955 155.238M252.904 153.182C256.502 150.54 264.315 144.608 266.783 142.022M251.619 155.238C240.824 156.523 230.8 170.402 236.198 178.627M243.394 152.154C247.421 149.214 255.422 142.776 255.217 140.547M241.338 153.182C239.11 154.896 234.398 158.271 233.37 158.065M252.904 181.123C253.075 175.75 251.721 165.673 244.936 168.346C241.338 169.374 238.682 176.746 239.796 179.276" stroke="#FEA100" stroke-width="1.02807"/>
<path d="M419.792 47.1652C419.745 44.9444 421.47 43.0873 423.688 42.9708L552.37 36.2108C554.722 36.0872 556.698 37.9615 556.698 40.3174V197.014C556.698 199.605 554.331 201.55 551.789 201.048L425.779 176.184C423.884 175.81 422.505 174.168 422.464 172.238L419.792 47.1652Z" fill="#CCE5D4"/>
<path d="M380.641 21.1969C380.641 18.8791 382.555 17.0193 384.872 17.0863L554.247 21.9886C556.471 22.053 558.24 23.8744 558.24 26.0992V184.875C558.24 187.399 555.987 189.328 553.493 188.938L384.118 162.465C382.116 162.153 380.641 160.428 380.641 158.402V21.1969Z" fill="white"/>
<path d="M393.235 29.2988L545.389 33.7048V177.341L393.235 153.549V29.2988Z" fill="#FEF8E5"/>
<path d="M558.24 189.678L384.118 162.463C382.116 162.151 380.641 160.426 380.641 158.4V102.549" stroke="#FEB200" stroke-width="1.02807"/>
<path d="M427.162 58.0872V19.2775V14.9082H414.054V19.2775V58.0872H427.162Z" fill="#E5ECD3"/>
<path d="M426.645 15.1641L415.336 0L403.77 15.1641H408.654V53.9738H421.762V15.1641H426.645Z" fill="#FEC300"/>
<path d="M547.441 27.0047C547.441 35.1049 539.217 45.2362 532.791 58.8581C528.422 44.4651 518.141 35.1049 518.141 27.0047C518.141 18.9044 524.7 12.3379 532.791 12.3379C540.882 12.3379 547.441 18.9044 547.441 27.0047Z" fill="#199164"/>
<path d="M532.793 16.9639L535.158 24.2453L542.815 24.2453L536.621 28.7454L538.987 36.0268L532.793 31.5267L526.599 36.0268L528.965 28.7454L522.771 24.2453L530.427 24.2453L532.793 16.9639Z" fill="white"/>
<path d="M436.926 58.6635C436.926 58.072 437.425 57.603 438.015 57.6393L469.375 59.5691C469.917 59.6024 470.339 60.0511 470.339 60.5933C470.339 61.1848 469.84 61.6539 469.249 61.6175L437.889 59.6877C437.348 59.6544 436.926 59.2057 436.926 58.6635Z" fill="#FEC200"/>
<path d="M436.927 64.3178C436.927 63.7263 437.425 63.2573 438.016 63.2936L469.376 65.2234C469.917 65.2567 470.339 65.7054 470.339 66.2476C470.339 66.8391 469.84 67.3082 469.25 67.2718L437.89 65.342C437.348 65.3087 436.927 64.86 436.927 64.3178Z" fill="#FEC200"/>
<path d="M436.927 69.994C436.927 69.3954 437.437 68.9242 438.034 68.9726L455.004 70.3485C455.536 70.3917 455.946 70.8361 455.946 71.3699C455.946 71.9685 455.435 72.4396 454.838 72.3913L437.868 71.0153C437.336 70.9722 436.927 70.5278 436.927 69.994Z" fill="#FEC200"/>
<circle cx="537.94" cy="74.277" r="6.42545" fill="#E5ECD3"/>
<circle cx="473.171" cy="93.2965" r="6.42545" fill="#E5ECD3"/>
<circle cx="411.999" cy="143.159" r="6.42545" fill="#E5ECD3"/>
<path d="M411.229 143.416L430.506 116.429C431.962 115.058 435.286 113.499 436.931 118.228C438.576 122.957 441.729 129.28 443.1 131.85C443.511 132.621 447.469 133.289 448.497 131.85C449.782 130.051 465.032 103.835 472.657 90.9842L491.933 113.345C493.904 115.829 498.873 119.513 502.985 114.373C508.125 109.746 528.173 86.7006 538.196 76.0771" stroke="#EAEED7" stroke-width="1.54211"/>
<path d="M405.573 135.962L424.85 108.975C426.306 107.604 429.63 106.045 431.275 110.774C432.92 115.503 436.073 121.826 437.443 124.396C437.855 125.167 441.813 125.835 442.841 124.396C444.126 122.597 459.376 96.381 467.001 83.5301L486.277 105.891C488.247 108.375 493.216 112.059 497.329 106.919C502.469 102.292 522.516 79.2465 532.54 68.623" stroke="#FEC200" stroke-width="1.54211"/>
<circle cx="467.003" cy="84.5573" r="6.42545" fill="#199164"/>
<circle cx="404.804" cy="136.99" r="6.42545" fill="#199164"/>
<circle cx="533.312" cy="68.6227" r="6.42545" fill="#80CC23"/>
<path d="M333.347 199.838C333.347 196.955 335.955 194.774 338.792 195.284L529.69 229.598C533.173 230.224 535.232 233.859 533.977 237.168L526.746 256.232C525.781 258.775 523.144 260.271 520.466 259.793L337.162 227.113C334.955 226.719 333.347 224.8 333.347 222.558V199.838Z" fill="#CCE5D4"/>
<path d="M322.811 188.957C322.811 186.42 325.084 184.489 327.587 184.898L556.242 222.31C558.727 222.717 560.552 224.864 560.552 227.383V249.85C560.552 253.02 557.71 255.435 554.582 254.923L326.259 217.566C324.271 217.24 322.811 215.522 322.811 213.507V188.957Z" fill="white" stroke="#7FCB21" stroke-width="1.02807"/>
<path d="M329.754 196.617L432.304 212.809" stroke="#7FCB21" stroke-width="1.02807"/>
<path d="M330.011 205.612L387.583 216.15" stroke="#7FCB21" stroke-width="1.02807"/>
<path d="M328.211 241.384C328.211 238.447 330.913 236.253 333.787 236.856L525.091 276.973C528.383 277.663 530.348 281.057 529.308 284.255L521.514 308.229C520.622 310.972 517.809 312.604 514.985 312.017L331.896 273.935C329.75 273.488 328.211 271.597 328.211 269.405V241.384Z" fill="#CCE5D4"/>
<path d="M317.674 231.761C317.674 229.183 320.019 227.241 322.552 227.72L553.545 271.479C555.972 271.938 557.729 274.059 557.729 276.529V304.68C557.729 307.902 554.798 310.33 551.632 309.73L321.021 266.044C319.079 265.677 317.674 263.98 317.674 262.004V231.761Z" fill="#EFFAE0" stroke="#7FCB21" stroke-width="1.02807"/>
<path d="M324.875 248.363L535.629 285.545" stroke="#7FCB21" stroke-width="1.54211"/>
<path d="M329.235 296.384C329.235 293.447 331.936 291.253 334.811 291.856L526.115 331.973C529.406 332.663 531.372 336.057 530.332 339.255L522.537 363.229C521.645 365.972 518.832 367.604 516.008 367.017L332.919 328.935C330.773 328.488 329.235 326.597 329.235 324.405V296.384Z" fill="#CCE5D4"/>
<path d="M318.697 286.761C318.697 284.183 321.042 282.241 323.575 282.72L554.568 326.479C556.995 326.938 558.752 329.059 558.752 331.529V359.68C558.752 362.902 555.821 365.33 552.655 364.73L322.044 321.044C320.103 320.677 318.697 318.98 318.697 317.004V286.761Z" fill="white" stroke="#7FCB21" stroke-width="1.02807"/>
<path d="M325.898 303.363L536.653 340.545" stroke="#7FCB21" stroke-width="1.54211"/>
<circle cx="550.532" cy="260.617" r="29.8141" fill="#CCE5D4"/>
<circle cx="556.184" cy="255.991" r="29.3" fill="white" stroke="#FEC300" stroke-width="1.02807"/>
<path d="M558.084 236.254L561.246 250.34L575.619 251.686L563.2 259.045L566.362 273.131L555.525 263.594L543.106 270.954L548.827 257.7L537.989 248.163L552.363 249.508L558.084 236.254Z" fill="#FEC300"/>
<path d="M243.389 342.604L199.953 341.062V332.837L309.699 237.227L363.93 228.745L404.539 270.639L482.158 201.501L444.634 209.469L571.343 136.219L578.54 184.024L550.011 190.192L452.344 280.406L373.954 300.196L340.541 266.013L243.389 342.604Z" fill="#0B6A46"/>
<path d="M373.953 300.194L340.541 266.011L309.699 237.225L363.93 228.743L404.539 270.637L373.953 300.194Z" fill="#199164"/>
<path d="M286.568 287.092L280.914 277.84C283.57 276.812 288.882 272.905 288.882 265.503C289.396 260.619 292.223 266.531 292.48 270.9L294.022 271.414C303.532 265.503 317.462 260.774 299.162 273.727V274.755C306.787 273.213 317.925 271.825 301.475 278.611C301.733 279.639 295.564 289.919 286.568 287.092Z" fill="#F1C6C0"/>
<path d="M301.476 278.609L297.364 280.922M294.794 277.066L299.163 274.239M296.85 283.492L299.876 281.693" stroke="#EEB1AA" stroke-width="0.514036"/>
<ellipse cx="463.684" cy="546.977" rx="44.9781" ry="19.2763" transform="rotate(19.9321 463.684 546.977)" fill="#EDB012"/>
<path d="M477.691 392.467L451.912 424.594C440.336 409.173 439.909 392.467 442.48 381.929L470.752 325.899C482.472 351.396 482.318 380.13 477.691 392.467Z" fill="#1CAA75"/>
<path d="M449.933 477.283L451.989 422.538C455.094 411.413 459.29 395.449 462.981 379.616M470.751 325.899C472.978 332.085 468.555 355.701 462.981 379.616M462.981 379.616C463.339 378.074 479.747 359.055 479.233 354.428" stroke="#126646" stroke-width="1.02807"/>
<path d="M496.176 434.36C523.162 421.766 551.691 393.237 563.771 382.442C570.761 438.575 518.795 457.235 496.176 434.36Z" fill="#1CAA75"/>
<path d="M521.348 418.938L534.992 416.625" stroke="#007F2A" stroke-width="1.02807"/>
<path d="M496.176 434.36C518.795 457.235 570.761 438.575 563.771 382.442C547.838 415.341 527.019 438.472 496.176 434.36Z" fill="#199164"/>
<path d="M563.775 382.442C551.695 393.237 523.166 421.766 496.18 434.36C493.439 435.902 484.204 440.888 469.194 448.496C454.184 456.104 453.687 470.685 455.315 477.025" stroke="#126646" stroke-width="1.02807"/>
<path d="M490.788 402.231C488.046 403.774 468.17 422.793 447.864 432.046C432.188 442.84 436.324 470.17 437.952 476.51" stroke="#126646" stroke-width="1.02807"/>
<path d="M498.499 372.675C485.957 381.722 488.132 396.149 490.788 402.232C496.614 401.29 506.981 394.778 518.032 389.638C529.958 381.619 530.712 359.224 529.598 349.029C524.201 354.769 511.606 365.221 498.499 372.675Z" fill="#199164"/>
<path d="M442.99 477.541C445.56 464.347 444.018 439.502 415.746 428.45" stroke="#126646" stroke-width="1.02807"/>
<path d="M415.745 428.449C403.066 420.224 376.267 401.873 370.51 394.266C367.683 405.574 379.506 450.296 415.745 428.449Z" fill="#199164"/>
<path d="M415.743 428.449C403.063 420.224 376.265 401.873 370.508 394.266C374.963 407.031 390.247 431.739 415.743 428.449Z" fill="#1CAA75"/>
<path d="M411.742 474.453H484.735V518.146C484.735 538.303 468.395 554.643 448.239 554.643C428.082 554.643 411.742 538.303 411.742 518.146V474.453Z" fill="#D11E18"/>
<path d="M484.735 480.365C467.943 488.161 441.505 507.197 473.169 539.479M422.28 544.105C417.397 514.034 449.729 505.244 445.412 544.105M411.742 499.898C420.052 494.758 438.421 482.472 445.412 474.453" stroke="#FE9D00" stroke-width="1.02807"/>
<path d="M413.796 528.17C411.569 522.858 412.974 509.459 436.414 498.356C459.854 487.253 466.742 477.794 467.257 474.453" stroke="#FE9D00" stroke-width="1.02807"/>
<path d="M244.673 404.545C210.488 365.478 231.564 305.594 286.568 323.585L287.852 360.081L292.478 370.876L331.802 384.756C333.858 428.757 266.005 428.924 244.673 404.545Z" fill="#FEF8E5"/>
<path d="M262.152 371.904C262.152 379.144 268.021 385.012 275.26 385.012C279.951 385.012 284.066 382.548 286.383 378.844C276.57 379.872 275.736 366.594 275.26 359.567C269.252 360.762 262.152 365.545 262.152 371.904Z" fill="#FEC300"/>
<path d="M292.483 370.877L331.807 384.757C332.759 405.144 318.704 416.121 301.221 419.607C312.94 416.028 317.927 396.595 318.955 387.326L286.572 377.045L273.977 363.166V327.441L249.047 324.505C258.632 319.6 271.293 318.588 286.572 323.586L287.856 360.082L292.483 370.877Z" fill="#FEC300"/>
<path d="M331.804 384.756C332.757 405.143 318.701 416.121 301.219 419.606C312.938 416.027 317.924 396.594 318.953 387.325L331.804 384.756Z" fill="#FE9D00"/>
<path d="M301.475 329.752L287.854 334.378C284.684 343.031 278.035 361.005 276.802 363.678C280.297 364.706 283.57 371.303 284.769 374.473L317.411 376.786C320.152 376.015 326.612 374.062 330.518 372.417C327.434 351.033 309.871 335.064 301.475 329.752Z" fill="#199164"/>
<path d="M276.8 363.679C280.295 364.707 283.568 371.304 284.767 374.473L288.88 374.765C287.852 377.409 284.459 381.31 279.113 375.759C272.122 366.712 275.762 361.194 278.456 359.566C277.681 361.571 277.09 363.049 276.8 363.679Z" fill="#F3F9F5"/>
<path d="M301.474 329.752L287.852 334.378C296.419 340.547 314.325 357.664 317.409 376.786C320.151 376.015 326.61 374.062 330.517 372.417C327.433 351.033 309.87 335.064 301.474 329.752Z" fill="#0B6A46"/>
<path d="M148.292 75.5617C129.016 74.1053 90.2064 71.1924 89.1783 71.1924L86.3511 88.4126L90.7204 95.095L83.2669 96.8942L77.3555 115.913L94.3186 107.175L97.6599 112.058L148.292 75.5617Z" fill="#199164"/>
<path d="M94.3191 107.175L97.6603 112.058L143.924 78.711L94.3191 107.175Z" fill="#167853"/>
<path d="M86.3516 88.4124L90.7209 95.0949L148.293 75.5615L86.3516 88.4124Z" fill="#167853"/>
<path d="M129.794 35.8113C129.794 33.0012 132.16 30.7709 134.965 30.9364L393.782 46.2044C396.363 46.3566 398.378 48.4939 398.378 51.0792V77.1489C398.378 79.9992 395.947 82.2438 393.106 82.0167L134.289 61.331C131.751 61.1282 129.794 59.0093 129.794 56.4632V35.8113Z" fill="#EFFAE0" stroke="#80CC23" stroke-width="1.54211"/>
<circle cx="141.102" cy="46.5201" r="4.88334" fill="#FE9D00"/>
<circle cx="154.469" cy="47.0347" r="4.88334" fill="#FEC300"/>
<circle cx="167.837" cy="47.5484" r="4.88334" fill="#199164"/>
</svg>
