<svg width="445" height="523" viewBox="0 0 445 523" fill="none" xmlns="http://www.w3.org/2000/svg">
<rect x="100.5" y="0.5" width="319" height="522" rx="15.5" fill="#E4ECF5" stroke="#9BA4AD"/>
<path d="M138.558 454.364H141.705V463H143.534V454.364H146.681V452.818H138.558V454.364ZM150.107 458.526C150.107 457.422 150.794 456.786 151.758 456.786C152.703 456.786 153.259 457.387 153.259 458.416V463H155.059V458.138C155.059 456.293 154.015 455.264 152.429 455.264C151.256 455.264 150.51 455.796 150.157 456.661H150.068V452.818H148.308V463H150.107V458.526ZM157.034 463H158.833V455.364H157.034V463ZM157.938 454.28C158.51 454.28 158.978 453.842 158.978 453.305C158.978 452.763 158.51 452.326 157.938 452.326C157.362 452.326 156.894 452.763 156.894 453.305C156.894 453.842 157.362 454.28 157.938 454.28ZM166.86 457.382C166.611 456.089 165.577 455.264 163.787 455.264C161.948 455.264 160.695 456.169 160.7 457.581C160.695 458.695 161.381 459.43 162.847 459.734L164.15 460.007C164.851 460.161 165.179 460.445 165.179 460.877C165.179 461.399 164.612 461.792 163.757 461.792C162.932 461.792 162.395 461.434 162.241 460.748L160.486 460.917C160.71 462.319 161.888 463.149 163.762 463.149C165.671 463.149 167.019 462.16 167.024 460.713C167.019 459.624 166.318 458.958 164.876 458.645L163.573 458.366C162.798 458.192 162.49 457.924 162.495 457.482C162.49 456.964 163.061 456.607 163.812 456.607C164.642 456.607 165.08 457.059 165.219 457.561L166.86 457.382ZM173.836 463H175.716L177.147 457.839H177.252L178.684 463H180.558L182.721 455.364H180.881L179.559 460.703H179.484L178.112 455.364H176.297L174.925 460.733H174.855L173.513 455.364H171.679L173.836 463ZM184.117 463H185.917V455.364H184.117V463ZM185.022 454.28C185.594 454.28 186.061 453.842 186.061 453.305C186.061 452.763 185.594 452.326 185.022 452.326C184.445 452.326 183.978 452.763 183.978 453.305C183.978 453.842 184.445 454.28 185.022 454.28ZM189.707 452.818H187.907V463H189.707V452.818ZM193.498 452.818H191.698V463H193.498V452.818ZM200.901 458.526C200.901 457.422 201.567 456.786 202.516 456.786C203.446 456.786 204.003 457.397 204.003 458.416V463H205.803V458.138C205.808 456.308 204.764 455.264 203.188 455.264C202.044 455.264 201.259 455.811 200.911 456.661H200.821V455.364H199.101V463H200.901V458.526ZM211.103 463.149C213.34 463.149 214.762 461.573 214.762 459.212C214.762 456.845 213.34 455.264 211.103 455.264C208.866 455.264 207.444 456.845 207.444 459.212C207.444 461.573 208.866 463.149 211.103 463.149ZM211.113 461.707C209.875 461.707 209.269 460.604 209.269 459.207C209.269 457.81 209.875 456.691 211.113 456.691C212.331 456.691 212.938 457.81 212.938 459.207C212.938 460.604 212.331 461.707 211.113 461.707ZM220.243 455.364H218.737V453.534H216.937V455.364H215.853V456.756H216.937V461.001C216.927 462.438 217.971 463.144 219.323 463.104C219.835 463.089 220.188 462.99 220.382 462.925L220.079 461.518C219.979 461.543 219.776 461.588 219.552 461.588C219.1 461.588 218.737 461.429 218.737 460.703V456.756H220.243V455.364ZM227.698 463.154C228.896 463.154 229.612 462.592 229.94 461.951H230V463H231.73V457.889C231.73 455.871 230.085 455.264 228.628 455.264C227.022 455.264 225.789 455.98 225.391 457.372L227.072 457.611C227.251 457.089 227.758 456.641 228.638 456.641C229.473 456.641 229.93 457.069 229.93 457.82V457.849C229.93 458.366 229.389 458.391 228.041 458.536C226.56 458.695 225.143 459.137 225.143 460.857C225.143 462.359 226.242 463.154 227.698 463.154ZM228.166 461.832C227.415 461.832 226.878 461.489 226.878 460.827C226.878 460.136 227.479 459.848 228.285 459.734C228.757 459.669 229.702 459.55 229.935 459.361V460.261C229.935 461.111 229.249 461.832 228.166 461.832ZM237.548 455.364H235.962V454.762C235.962 454.165 236.21 453.832 236.882 453.832C237.165 453.832 237.404 453.897 237.553 453.942L237.916 452.55C237.682 452.47 237.17 452.341 236.548 452.341C235.221 452.341 234.162 453.102 234.162 454.643V455.364H233.034V456.756H234.162V463H235.962V456.756H237.548V455.364ZM242.965 455.364H241.379V454.762C241.379 454.165 241.628 453.832 242.299 453.832C242.582 453.832 242.821 453.897 242.97 453.942L243.333 452.55C243.099 452.47 242.587 452.341 241.966 452.341C240.638 452.341 239.579 453.102 239.579 454.643V455.364H238.451V456.756H239.579V463H241.379V456.756H242.965V455.364ZM247.608 463.149C249.388 463.149 250.611 462.279 250.929 460.952L249.249 460.763C249.005 461.409 248.409 461.747 247.633 461.747C246.47 461.747 245.699 460.982 245.684 459.674H251.004V459.122C251.004 456.442 249.393 455.264 247.514 455.264C245.326 455.264 243.899 456.87 243.899 459.227C243.899 461.623 245.306 463.149 247.608 463.149ZM245.689 458.461C245.744 457.487 246.465 456.666 247.538 456.666C248.573 456.666 249.269 457.422 249.279 458.461H245.689ZM255.997 463.149C257.916 463.149 259.139 462.011 259.269 460.39H257.548C257.394 461.21 256.803 461.683 256.012 461.683C254.889 461.683 254.163 460.743 254.163 459.182C254.163 457.641 254.903 456.716 256.012 456.716C256.877 456.716 257.409 457.273 257.548 458.009H259.269C259.144 456.353 257.852 455.264 255.987 455.264C253.75 455.264 252.338 456.88 252.338 459.212C252.338 461.523 253.715 463.149 255.997 463.149ZM264.7 455.364H263.193V453.534H261.393V455.364H260.31V456.756H261.393V461.001C261.383 462.438 262.428 463.144 263.78 463.104C264.292 463.089 264.645 462.99 264.839 462.925L264.535 461.518C264.436 461.543 264.232 461.588 264.008 461.588C263.556 461.588 263.193 461.429 263.193 460.703V456.756H264.7V455.364ZM271.076 465.864C272.478 465.864 273.288 465.143 273.721 463.925L276.788 455.374L274.864 455.364L273.099 461.131H273.02L271.26 455.364H269.351L272.12 463.159L271.966 463.572C271.633 464.442 271.106 464.501 270.32 464.273L269.903 465.675C270.146 465.774 270.584 465.864 271.076 465.864ZM281.249 463.149C283.486 463.149 284.908 461.573 284.908 459.212C284.908 456.845 283.486 455.264 281.249 455.264C279.011 455.264 277.59 456.845 277.59 459.212C277.59 461.573 279.011 463.149 281.249 463.149ZM281.259 461.707C280.021 461.707 279.414 460.604 279.414 459.207C279.414 457.81 280.021 456.691 281.259 456.691C282.477 456.691 283.083 457.81 283.083 459.207C283.083 460.604 282.477 461.707 281.259 461.707ZM291.442 459.788C291.442 460.952 290.612 461.528 289.817 461.528C288.952 461.528 288.375 460.917 288.375 459.947V455.364H286.575V460.226C286.575 462.06 287.619 463.099 289.121 463.099C290.264 463.099 291.07 462.498 291.418 461.643H291.497V463H293.242V455.364H291.442V459.788ZM295.233 463H297.033V458.511C297.033 457.541 297.763 456.855 298.753 456.855C299.056 456.855 299.434 456.91 299.588 456.96V455.304C299.424 455.274 299.14 455.254 298.942 455.254C298.067 455.254 297.336 455.751 297.057 456.636H296.978V455.364H295.233V463ZM307.867 463.149C309.786 463.149 311.009 462.011 311.139 460.39H309.418C309.264 461.21 308.673 461.683 307.882 461.683C306.759 461.683 306.033 460.743 306.033 459.182C306.033 457.641 306.773 456.716 307.882 456.716C308.747 456.716 309.279 457.273 309.418 458.009H311.139C311.014 456.353 309.722 455.264 307.857 455.264C305.62 455.264 304.208 456.88 304.208 459.212C304.208 461.523 305.585 463.149 307.867 463.149ZM312.756 463H314.556V458.511C314.556 457.541 315.287 456.855 316.276 456.855C316.579 456.855 316.957 456.91 317.111 456.96V455.304C316.947 455.274 316.664 455.254 316.465 455.254C315.59 455.254 314.859 455.751 314.581 456.636H314.501V455.364H312.756V463ZM321.513 463.149C323.293 463.149 324.516 462.279 324.834 460.952L323.154 460.763C322.91 461.409 322.314 461.747 321.538 461.747C320.375 461.747 319.604 460.982 319.589 459.674H324.909V459.122C324.909 456.442 323.298 455.264 321.419 455.264C319.231 455.264 317.805 456.87 317.805 459.227C317.805 461.623 319.211 463.149 321.513 463.149ZM319.594 458.461C319.649 457.487 320.37 456.666 321.444 456.666C322.478 456.666 323.174 457.422 323.184 458.461H319.594ZM329.405 463.134C330.718 463.134 331.309 462.354 331.593 461.797H331.702V463H333.472V452.818H331.667V456.626H331.593C331.319 456.075 330.758 455.264 329.41 455.264C327.645 455.264 326.258 456.646 326.258 459.192C326.258 461.707 327.606 463.134 329.405 463.134ZM329.907 461.658C328.719 461.658 328.093 460.614 328.093 459.182C328.093 457.76 328.709 456.741 329.907 456.741C331.066 456.741 331.702 457.7 331.702 459.182C331.702 460.663 331.056 461.658 329.907 461.658ZM335.53 463H337.33V455.364H335.53V463ZM336.435 454.28C337.006 454.28 337.474 453.842 337.474 453.305C337.474 452.763 337.006 452.326 336.435 452.326C335.858 452.326 335.391 452.763 335.391 453.305C335.391 453.842 335.858 454.28 336.435 454.28ZM343.133 455.364H341.627V453.534H339.827V455.364H338.744V456.756H339.827V461.001C339.817 462.438 340.861 463.144 342.214 463.104C342.726 463.089 343.079 462.99 343.273 462.925L342.969 461.518C342.87 461.543 342.666 461.588 342.442 461.588C341.99 461.588 341.627 461.429 341.627 460.703V456.756H343.133V455.364ZM354.427 457.382C354.178 456.089 353.144 455.264 351.354 455.264C349.515 455.264 348.262 456.169 348.267 457.581C348.262 458.695 348.948 459.43 350.415 459.734L351.717 460.007C352.418 460.161 352.746 460.445 352.746 460.877C352.746 461.399 352.18 461.792 351.324 461.792C350.499 461.792 349.962 461.434 349.808 460.748L348.053 460.917C348.277 462.319 349.455 463.149 351.329 463.149C353.239 463.149 354.586 462.16 354.591 460.713C354.586 459.624 353.885 458.958 352.443 458.645L351.141 458.366C350.365 458.192 350.057 457.924 350.062 457.482C350.057 456.964 350.628 456.607 351.379 456.607C352.209 456.607 352.647 457.059 352.786 457.561L354.427 457.382ZM360.028 455.364H358.522V453.534H356.722V455.364H355.638V456.756H356.722V461.001C356.712 462.438 357.756 463.144 359.108 463.104C359.62 463.089 359.973 462.99 360.167 462.925L359.864 461.518C359.765 461.543 359.561 461.588 359.337 461.588C358.885 461.588 358.522 461.429 358.522 460.703V456.756H360.028V455.364ZM364.922 463.149C367.159 463.149 368.581 461.573 368.581 459.212C368.581 456.845 367.159 455.264 364.922 455.264C362.685 455.264 361.263 456.845 361.263 459.212C361.263 461.573 362.685 463.149 364.922 463.149ZM364.932 461.707C363.694 461.707 363.088 460.604 363.088 459.207C363.088 457.81 363.694 456.691 364.932 456.691C366.15 456.691 366.757 457.81 366.757 459.207C366.757 460.604 366.15 461.707 364.932 461.707ZM370.249 463H372.048V458.511C372.048 457.541 372.779 456.855 373.769 456.855C374.072 456.855 374.45 456.91 374.604 456.96V455.304C374.44 455.274 374.156 455.254 373.958 455.254C373.083 455.254 372.352 455.751 372.073 456.636H371.994V455.364H370.249V463ZM379.006 463.149C380.786 463.149 382.009 462.279 382.327 460.952L380.646 460.763C380.403 461.409 379.806 461.747 379.031 461.747C377.867 461.747 377.097 460.982 377.082 459.674H382.401V459.122C382.401 456.442 380.791 455.264 378.911 455.264C376.724 455.264 375.297 456.87 375.297 459.227C375.297 461.623 376.704 463.149 379.006 463.149ZM377.087 458.461C377.141 457.487 377.862 456.666 378.936 456.666C379.97 456.666 380.666 457.422 380.676 458.461H377.087Z" fill="#959595"/>
<path d="M125 383C125 381.895 125.895 381 127 381H393C394.105 381 395 381.895 395 383V435C395 436.105 394.105 437 393 437H127C125.895 437 125 436.105 125 435V383Z" fill="#05264C"/>
<path d="M232.496 407.326C232.094 404.418 229.857 402.73 226.955 402.73C223.535 402.73 220.959 405.223 220.959 409.455C220.959 413.68 223.503 416.179 226.955 416.179C230.067 416.179 232.132 414.165 232.496 411.666L230.106 411.653C229.805 413.188 228.553 414.05 226.987 414.05C224.864 414.05 223.343 412.459 223.343 409.455C223.343 406.501 224.852 404.859 226.993 404.859C228.585 404.859 229.831 405.76 230.106 407.326H232.496ZM238.849 416.192C241.725 416.192 243.553 414.165 243.553 411.129C243.553 408.087 241.725 406.054 238.849 406.054C235.972 406.054 234.144 408.087 234.144 411.129C234.144 414.165 235.972 416.192 238.849 416.192ZM238.861 414.338C237.27 414.338 236.49 412.919 236.49 411.123C236.49 409.327 237.27 407.888 238.861 407.888C240.427 407.888 241.207 409.327 241.207 411.123C241.207 412.919 240.427 414.338 238.861 414.338ZM247.831 410.247C247.831 408.828 248.688 408.01 249.908 408.01C251.104 408.01 251.82 408.796 251.82 410.107V416H254.134V409.749C254.14 407.396 252.798 406.054 250.771 406.054C249.301 406.054 248.291 406.757 247.844 407.85H247.729V406.182H245.517V416H247.831V410.247ZM261.388 406.182H259.452V403.83H257.138V406.182H255.744V407.972H257.138V413.43C257.125 415.278 258.467 416.185 260.206 416.134C260.864 416.115 261.318 415.987 261.567 415.904L261.178 414.095C261.05 414.127 260.788 414.185 260.5 414.185C259.918 414.185 259.452 413.98 259.452 413.047V407.972H261.388V406.182ZM263.324 416H265.638V406.182H263.324V416ZM264.487 404.788C265.222 404.788 265.823 404.226 265.823 403.536C265.823 402.839 265.222 402.276 264.487 402.276C263.746 402.276 263.145 402.839 263.145 403.536C263.145 404.226 263.746 404.788 264.487 404.788ZM270.331 410.247C270.331 408.828 271.188 408.01 272.408 408.01C273.604 408.01 274.32 408.796 274.32 410.107V416H276.634V409.749C276.64 407.396 275.298 406.054 273.271 406.054C271.801 406.054 270.791 406.757 270.344 407.85H270.229V406.182H268.017V416H270.331V410.247ZM285.244 411.871C285.244 413.366 284.176 414.108 283.153 414.108C282.041 414.108 281.3 413.322 281.3 412.075V406.182H278.986V412.433C278.986 414.792 280.328 416.128 282.259 416.128C283.729 416.128 284.764 415.354 285.212 414.255H285.314V416H287.558V406.182H285.244V411.871ZM294.284 416.192C296.572 416.192 298.144 415.073 298.553 413.366L296.393 413.124C296.08 413.955 295.313 414.389 294.316 414.389C292.82 414.389 291.829 413.405 291.81 411.724H298.649V411.014C298.649 407.569 296.578 406.054 294.162 406.054C291.35 406.054 289.515 408.119 289.515 411.148C289.515 414.229 291.324 416.192 294.284 416.192ZM291.816 410.164C291.887 408.911 292.813 407.857 294.194 407.857C295.524 407.857 296.419 408.828 296.431 410.164H291.816Z" fill="white"/>
<path d="M324.641 326.656C325.276 326.581 325.756 326.373 326.081 326.032C326.412 325.691 326.577 325.251 326.577 324.712C326.577 324.483 326.534 324.283 326.449 324.112C326.364 323.941 326.246 323.792 326.097 323.664C325.953 323.536 325.78 323.427 325.577 323.336C325.374 323.24 325.156 323.152 324.921 323.072L324.641 326.656ZM324.249 317.848C323.929 317.88 323.654 317.947 323.425 318.048C323.196 318.144 323.006 318.264 322.857 318.408C322.708 318.547 322.598 318.704 322.529 318.88C322.46 319.056 322.425 319.243 322.425 319.44C322.425 319.664 322.465 319.861 322.545 320.032C322.625 320.203 322.734 320.355 322.873 320.488C323.017 320.616 323.185 320.731 323.377 320.832C323.569 320.928 323.777 321.019 324.001 321.104L324.249 317.848ZM325.049 321.44C325.433 321.557 325.812 321.688 326.185 321.832C326.564 321.971 326.902 322.152 327.201 322.376C327.5 322.595 327.74 322.869 327.921 323.2C328.108 323.531 328.201 323.944 328.201 324.44C328.201 324.925 328.118 325.384 327.953 325.816C327.793 326.243 327.556 326.621 327.241 326.952C326.926 327.277 326.54 327.544 326.081 327.752C325.628 327.955 325.11 328.075 324.529 328.112L324.433 329.392C324.428 329.504 324.382 329.605 324.297 329.696C324.212 329.792 324.102 329.84 323.969 329.84H323.329L323.465 328.088C322.836 328.013 322.249 327.848 321.705 327.592C321.166 327.331 320.705 327.005 320.321 326.616L320.841 325.824C320.889 325.755 320.95 325.699 321.025 325.656C321.105 325.608 321.19 325.584 321.281 325.584C321.393 325.584 321.513 325.629 321.641 325.72C321.774 325.811 321.929 325.917 322.105 326.04C322.281 326.157 322.489 326.275 322.729 326.392C322.969 326.504 323.252 326.587 323.577 326.64L323.873 322.76C323.5 322.648 323.129 322.523 322.761 322.384C322.398 322.24 322.07 322.051 321.777 321.816C321.489 321.581 321.254 321.288 321.073 320.936C320.897 320.584 320.809 320.141 320.809 319.608C320.809 319.208 320.886 318.819 321.041 318.44C321.201 318.061 321.43 317.725 321.729 317.432C322.033 317.133 322.406 316.891 322.849 316.704C323.292 316.512 323.798 316.403 324.369 316.376L324.449 315.304C324.454 315.187 324.5 315.083 324.585 314.992C324.67 314.901 324.78 314.856 324.913 314.856H325.553L325.433 316.424C325.993 316.504 326.478 316.659 326.889 316.888C327.3 317.112 327.657 317.373 327.961 317.672L327.545 318.312C327.428 318.499 327.284 318.592 327.113 318.592C327.033 318.592 326.937 318.563 326.825 318.504C326.718 318.445 326.59 318.376 326.441 318.296C326.297 318.216 326.132 318.136 325.945 318.056C325.758 317.976 325.55 317.915 325.321 317.872L325.049 321.44ZM332.186 320.736C332.464 320.677 332.728 320.635 332.978 320.608C333.234 320.581 333.48 320.568 333.714 320.568C334.317 320.568 334.848 320.659 335.306 320.84C335.77 321.016 336.157 321.261 336.466 321.576C336.781 321.891 337.016 322.261 337.17 322.688C337.33 323.109 337.41 323.568 337.41 324.064C337.41 324.677 337.304 325.235 337.09 325.736C336.877 326.237 336.581 326.667 336.202 327.024C335.824 327.376 335.376 327.648 334.858 327.84C334.346 328.032 333.792 328.128 333.194 328.128C332.842 328.128 332.506 328.093 332.186 328.024C331.872 327.955 331.576 327.861 331.298 327.744C331.021 327.621 330.765 327.483 330.53 327.328C330.296 327.168 330.085 327.003 329.898 326.832L330.426 326.096C330.538 325.936 330.688 325.856 330.874 325.856C330.992 325.856 331.12 325.899 331.258 325.984C331.397 326.069 331.557 326.163 331.738 326.264C331.925 326.36 332.144 326.451 332.394 326.536C332.645 326.621 332.944 326.664 333.29 326.664C333.669 326.664 334.008 326.603 334.306 326.48C334.605 326.357 334.856 326.187 335.058 325.968C335.266 325.744 335.424 325.477 335.53 325.168C335.637 324.859 335.69 324.52 335.69 324.152C335.69 323.816 335.64 323.515 335.538 323.248C335.442 322.981 335.296 322.755 335.098 322.568C334.906 322.381 334.664 322.24 334.37 322.144C334.077 322.043 333.738 321.992 333.354 321.992C333.072 321.992 332.781 322.016 332.482 322.064C332.189 322.112 331.89 322.187 331.586 322.288L330.514 321.984L331.458 316.48H337.034V317.224C337.034 317.469 336.957 317.669 336.802 317.824C336.648 317.979 336.389 318.056 336.026 318.056H332.65L332.186 320.736ZM347.388 322.24C347.388 323.248 347.278 324.12 347.06 324.856C346.846 325.592 346.55 326.203 346.172 326.688C345.793 327.173 345.348 327.533 344.836 327.768C344.324 328.003 343.772 328.12 343.18 328.12C342.588 328.12 342.036 328.003 341.524 327.768C341.012 327.533 340.566 327.173 340.188 326.688C339.814 326.203 339.521 325.592 339.308 324.856C339.094 324.12 338.988 323.248 338.988 322.24C338.988 321.232 339.094 320.36 339.308 319.624C339.521 318.883 339.814 318.272 340.188 317.792C340.566 317.307 341.012 316.947 341.524 316.712C342.036 316.472 342.588 316.352 343.18 316.352C343.772 316.352 344.324 316.472 344.836 316.712C345.348 316.947 345.793 317.307 346.172 317.792C346.55 318.272 346.846 318.883 347.06 319.624C347.278 320.36 347.388 321.232 347.388 322.24ZM345.612 322.24C345.612 321.387 345.542 320.677 345.404 320.112C345.27 319.541 345.092 319.085 344.868 318.744C344.644 318.403 344.385 318.16 344.092 318.016C343.798 317.872 343.494 317.8 343.18 317.8C342.86 317.8 342.553 317.872 342.26 318.016C341.972 318.16 341.716 318.403 341.492 318.744C341.268 319.085 341.089 319.541 340.956 320.112C340.822 320.677 340.756 321.387 340.756 322.24C340.756 323.093 340.822 323.805 340.956 324.376C341.089 324.941 341.268 325.395 341.492 325.736C341.716 326.077 341.972 326.32 342.26 326.464C342.553 326.608 342.86 326.68 343.18 326.68C343.494 326.68 343.798 326.608 344.092 326.464C344.385 326.32 344.644 326.077 344.868 325.736C345.092 325.395 345.27 324.941 345.404 324.376C345.542 323.805 345.612 323.093 345.612 322.24ZM349.805 327.992C349.65 327.992 349.509 327.965 349.381 327.912C349.253 327.853 349.141 327.776 349.045 327.68C348.954 327.579 348.882 327.461 348.829 327.328C348.781 327.195 348.757 327.048 348.757 326.888C348.757 326.749 348.781 326.619 348.829 326.496C348.882 326.373 348.954 326.267 349.045 326.176C349.141 326.085 349.253 326.016 349.381 325.968C349.514 325.915 349.658 325.888 349.813 325.888C349.994 325.888 350.154 325.923 350.293 325.992C350.431 326.056 350.546 326.147 350.637 326.264C350.733 326.376 350.802 326.509 350.845 326.664C350.893 326.813 350.917 326.973 350.917 327.144C350.917 327.389 350.879 327.648 350.805 327.92C350.735 328.192 350.629 328.461 350.485 328.728C350.346 329 350.173 329.264 349.965 329.52C349.762 329.776 349.53 330.011 349.269 330.224L348.973 329.952C348.93 329.909 348.898 329.869 348.877 329.832C348.861 329.795 348.853 329.747 348.853 329.688C348.853 329.597 348.898 329.512 348.989 329.432C349.042 329.373 349.111 329.296 349.197 329.2C349.282 329.104 349.367 328.995 349.453 328.872C349.538 328.749 349.615 328.613 349.685 328.464C349.759 328.315 349.813 328.157 349.845 327.992H349.805ZM360.676 322.24C360.676 323.248 360.567 324.12 360.348 324.856C360.135 325.592 359.839 326.203 359.46 326.688C359.082 327.173 358.636 327.533 358.124 327.768C357.612 328.003 357.06 328.12 356.468 328.12C355.876 328.12 355.324 328.003 354.812 327.768C354.3 327.533 353.855 327.173 353.476 326.688C353.103 326.203 352.81 325.592 352.596 324.856C352.383 324.12 352.276 323.248 352.276 322.24C352.276 321.232 352.383 320.36 352.596 319.624C352.81 318.883 353.103 318.272 353.476 317.792C353.855 317.307 354.3 316.947 354.812 316.712C355.324 316.472 355.876 316.352 356.468 316.352C357.06 316.352 357.612 316.472 358.124 316.712C358.636 316.947 359.082 317.307 359.46 317.792C359.839 318.272 360.135 318.883 360.348 319.624C360.567 320.36 360.676 321.232 360.676 322.24ZM358.9 322.24C358.9 321.387 358.831 320.677 358.692 320.112C358.559 319.541 358.38 319.085 358.156 318.744C357.932 318.403 357.674 318.16 357.38 318.016C357.087 317.872 356.783 317.8 356.468 317.8C356.148 317.8 355.842 317.872 355.548 318.016C355.26 318.16 355.004 318.403 354.78 318.744C354.556 319.085 354.378 319.541 354.244 320.112C354.111 320.677 354.044 321.387 354.044 322.24C354.044 323.093 354.111 323.805 354.244 324.376C354.378 324.941 354.556 325.395 354.78 325.736C355.004 326.077 355.26 326.32 355.548 326.464C355.842 326.608 356.148 326.68 356.468 326.68C356.783 326.68 357.087 326.608 357.38 326.464C357.674 326.32 357.932 326.077 358.156 325.736C358.38 325.395 358.559 324.941 358.692 324.376C358.831 323.805 358.9 323.093 358.9 322.24ZM370.118 322.24C370.118 323.248 370.008 324.12 369.79 324.856C369.576 325.592 369.28 326.203 368.902 326.688C368.523 327.173 368.078 327.533 367.566 327.768C367.054 328.003 366.502 328.12 365.91 328.12C365.318 328.12 364.766 328.003 364.254 327.768C363.742 327.533 363.296 327.173 362.918 326.688C362.544 326.203 362.251 325.592 362.038 324.856C361.824 324.12 361.718 323.248 361.718 322.24C361.718 321.232 361.824 320.36 362.038 319.624C362.251 318.883 362.544 318.272 362.918 317.792C363.296 317.307 363.742 316.947 364.254 316.712C364.766 316.472 365.318 316.352 365.91 316.352C366.502 316.352 367.054 316.472 367.566 316.712C368.078 316.947 368.523 317.307 368.902 317.792C369.28 318.272 369.576 318.883 369.79 319.624C370.008 320.36 370.118 321.232 370.118 322.24ZM368.342 322.24C368.342 321.387 368.272 320.677 368.134 320.112C368 319.541 367.822 319.085 367.598 318.744C367.374 318.403 367.115 318.16 366.822 318.016C366.528 317.872 366.224 317.8 365.91 317.8C365.59 317.8 365.283 317.872 364.99 318.016C364.702 318.16 364.446 318.403 364.222 318.744C363.998 319.085 363.819 319.541 363.686 320.112C363.552 320.677 363.486 321.387 363.486 322.24C363.486 323.093 363.552 323.805 363.686 324.376C363.819 324.941 363.998 325.395 364.222 325.736C364.446 326.077 364.702 326.32 364.99 326.464C365.283 326.608 365.59 326.68 365.91 326.68C366.224 326.68 366.528 326.608 366.822 326.464C367.115 326.32 367.374 326.077 367.598 325.736C367.822 325.395 368 324.941 368.134 324.376C368.272 323.805 368.342 323.093 368.342 322.24ZM379.559 322.24C379.559 323.248 379.449 324.12 379.231 324.856C379.017 325.592 378.721 326.203 378.343 326.688C377.964 327.173 377.519 327.533 377.007 327.768C376.495 328.003 375.943 328.12 375.351 328.12C374.759 328.12 374.207 328.003 373.695 327.768C373.183 327.533 372.737 327.173 372.359 326.688C371.985 326.203 371.692 325.592 371.479 324.856C371.265 324.12 371.159 323.248 371.159 322.24C371.159 321.232 371.265 320.36 371.479 319.624C371.692 318.883 371.985 318.272 372.359 317.792C372.737 317.307 373.183 316.947 373.695 316.712C374.207 316.472 374.759 316.352 375.351 316.352C375.943 316.352 376.495 316.472 377.007 316.712C377.519 316.947 377.964 317.307 378.343 317.792C378.721 318.272 379.017 318.883 379.231 319.624C379.449 320.36 379.559 321.232 379.559 322.24ZM377.783 322.24C377.783 321.387 377.713 320.677 377.575 320.112C377.441 319.541 377.263 319.085 377.039 318.744C376.815 318.403 376.556 318.16 376.263 318.016C375.969 317.872 375.665 317.8 375.351 317.8C375.031 317.8 374.724 317.872 374.431 318.016C374.143 318.16 373.887 318.403 373.663 318.744C373.439 319.085 373.26 319.541 373.127 320.112C372.993 320.677 372.927 321.387 372.927 322.24C372.927 323.093 372.993 323.805 373.127 324.376C373.26 324.941 373.439 325.395 373.663 325.736C373.887 326.077 374.143 326.32 374.431 326.464C374.724 326.608 375.031 326.68 375.351 326.68C375.665 326.68 375.969 326.608 376.263 326.464C376.556 326.32 376.815 326.077 377.039 325.736C377.263 325.395 377.441 324.941 377.575 324.376C377.713 323.805 377.783 323.093 377.783 322.24Z" fill="#959595"/>
<path d="M144.976 326.656C145.611 326.581 146.091 326.373 146.416 326.032C146.747 325.691 146.912 325.251 146.912 324.712C146.912 324.483 146.869 324.283 146.784 324.112C146.699 323.941 146.581 323.792 146.432 323.664C146.288 323.536 146.115 323.427 145.912 323.336C145.709 323.24 145.491 323.152 145.256 323.072L144.976 326.656ZM144.584 317.848C144.264 317.88 143.989 317.947 143.76 318.048C143.531 318.144 143.341 318.264 143.192 318.408C143.043 318.547 142.933 318.704 142.864 318.88C142.795 319.056 142.76 319.243 142.76 319.44C142.76 319.664 142.8 319.861 142.88 320.032C142.96 320.203 143.069 320.355 143.208 320.488C143.352 320.616 143.52 320.731 143.712 320.832C143.904 320.928 144.112 321.019 144.336 321.104L144.584 317.848ZM145.384 321.44C145.768 321.557 146.147 321.688 146.52 321.832C146.899 321.971 147.237 322.152 147.536 322.376C147.835 322.595 148.075 322.869 148.256 323.2C148.443 323.531 148.536 323.944 148.536 324.44C148.536 324.925 148.453 325.384 148.288 325.816C148.128 326.243 147.891 326.621 147.576 326.952C147.261 327.277 146.875 327.544 146.416 327.752C145.963 327.955 145.445 328.075 144.864 328.112L144.768 329.392C144.763 329.504 144.717 329.605 144.632 329.696C144.547 329.792 144.437 329.84 144.304 329.84H143.664L143.8 328.088C143.171 328.013 142.584 327.848 142.04 327.592C141.501 327.331 141.04 327.005 140.656 326.616L141.176 325.824C141.224 325.755 141.285 325.699 141.36 325.656C141.44 325.608 141.525 325.584 141.616 325.584C141.728 325.584 141.848 325.629 141.976 325.72C142.109 325.811 142.264 325.917 142.44 326.04C142.616 326.157 142.824 326.275 143.064 326.392C143.304 326.504 143.587 326.587 143.912 326.64L144.208 322.76C143.835 322.648 143.464 322.523 143.096 322.384C142.733 322.24 142.405 322.051 142.112 321.816C141.824 321.581 141.589 321.288 141.408 320.936C141.232 320.584 141.144 320.141 141.144 319.608C141.144 319.208 141.221 318.819 141.376 318.44C141.536 318.061 141.765 317.725 142.064 317.432C142.368 317.133 142.741 316.891 143.184 316.704C143.627 316.512 144.133 316.403 144.704 316.376L144.784 315.304C144.789 315.187 144.835 315.083 144.92 314.992C145.005 314.901 145.115 314.856 145.248 314.856H145.888L145.768 316.424C146.328 316.504 146.813 316.659 147.224 316.888C147.635 317.112 147.992 317.373 148.296 317.672L147.88 318.312C147.763 318.499 147.619 318.592 147.448 318.592C147.368 318.592 147.272 318.563 147.16 318.504C147.053 318.445 146.925 318.376 146.776 318.296C146.632 318.216 146.467 318.136 146.28 318.056C146.093 317.976 145.885 317.915 145.656 317.872L145.384 321.44ZM152.521 320.736C152.799 320.677 153.063 320.635 153.313 320.608C153.569 320.581 153.815 320.568 154.049 320.568C154.652 320.568 155.183 320.659 155.641 320.84C156.105 321.016 156.492 321.261 156.801 321.576C157.116 321.891 157.351 322.261 157.505 322.688C157.665 323.109 157.745 323.568 157.745 324.064C157.745 324.677 157.639 325.235 157.425 325.736C157.212 326.237 156.916 326.667 156.537 327.024C156.159 327.376 155.711 327.648 155.193 327.84C154.681 328.032 154.127 328.128 153.529 328.128C153.177 328.128 152.841 328.093 152.521 328.024C152.207 327.955 151.911 327.861 151.633 327.744C151.356 327.621 151.1 327.483 150.865 327.328C150.631 327.168 150.42 327.003 150.233 326.832L150.761 326.096C150.873 325.936 151.023 325.856 151.209 325.856C151.327 325.856 151.455 325.899 151.593 325.984C151.732 326.069 151.892 326.163 152.073 326.264C152.26 326.36 152.479 326.451 152.729 326.536C152.98 326.621 153.279 326.664 153.625 326.664C154.004 326.664 154.343 326.603 154.641 326.48C154.94 326.357 155.191 326.187 155.393 325.968C155.601 325.744 155.759 325.477 155.865 325.168C155.972 324.859 156.025 324.52 156.025 324.152C156.025 323.816 155.975 323.515 155.873 323.248C155.777 322.981 155.631 322.755 155.433 322.568C155.241 322.381 154.999 322.24 154.705 322.144C154.412 322.043 154.073 321.992 153.689 321.992C153.407 321.992 153.116 322.016 152.817 322.064C152.524 322.112 152.225 322.187 151.921 322.288L150.849 321.984L151.793 316.48H157.369V317.224C157.369 317.469 157.292 317.669 157.137 317.824C156.983 317.979 156.724 318.056 156.361 318.056H152.985L152.521 320.736ZM167.722 322.24C167.722 323.248 167.613 324.12 167.394 324.856C167.181 325.592 166.885 326.203 166.507 326.688C166.128 327.173 165.682 327.533 165.17 327.768C164.659 328.003 164.107 328.12 163.515 328.12C162.922 328.12 162.37 328.003 161.858 327.768C161.346 327.533 160.901 327.173 160.522 326.688C160.149 326.203 159.856 325.592 159.642 324.856C159.429 324.12 159.322 323.248 159.322 322.24C159.322 321.232 159.429 320.36 159.642 319.624C159.856 318.883 160.149 318.272 160.522 317.792C160.901 317.307 161.346 316.947 161.858 316.712C162.37 316.472 162.922 316.352 163.515 316.352C164.107 316.352 164.659 316.472 165.17 316.712C165.682 316.947 166.128 317.307 166.507 317.792C166.885 318.272 167.181 318.883 167.394 319.624C167.613 320.36 167.722 321.232 167.722 322.24ZM165.946 322.24C165.946 321.387 165.877 320.677 165.739 320.112C165.605 319.541 165.426 319.085 165.202 318.744C164.978 318.403 164.72 318.16 164.426 318.016C164.133 317.872 163.829 317.8 163.515 317.8C163.195 317.8 162.888 317.872 162.594 318.016C162.306 318.16 162.05 318.403 161.826 318.744C161.602 319.085 161.424 319.541 161.29 320.112C161.157 320.677 161.09 321.387 161.09 322.24C161.09 323.093 161.157 323.805 161.29 324.376C161.424 324.941 161.602 325.395 161.826 325.736C162.05 326.077 162.306 326.32 162.594 326.464C162.888 326.608 163.195 326.68 163.515 326.68C163.829 326.68 164.133 326.608 164.426 326.464C164.72 326.32 164.978 326.077 165.202 325.736C165.426 325.395 165.605 324.941 165.739 324.376C165.877 323.805 165.946 323.093 165.946 322.24ZM177.164 322.24C177.164 323.248 177.054 324.12 176.836 324.856C176.622 325.592 176.326 326.203 175.948 326.688C175.569 327.173 175.124 327.533 174.612 327.768C174.1 328.003 173.548 328.12 172.956 328.12C172.364 328.12 171.812 328.003 171.3 327.768C170.788 327.533 170.342 327.173 169.964 326.688C169.59 326.203 169.297 325.592 169.084 324.856C168.87 324.12 168.764 323.248 168.764 322.24C168.764 321.232 168.87 320.36 169.084 319.624C169.297 318.883 169.59 318.272 169.964 317.792C170.342 317.307 170.788 316.947 171.3 316.712C171.812 316.472 172.364 316.352 172.956 316.352C173.548 316.352 174.1 316.472 174.612 316.712C175.124 316.947 175.569 317.307 175.948 317.792C176.326 318.272 176.622 318.883 176.836 319.624C177.054 320.36 177.164 321.232 177.164 322.24ZM175.388 322.24C175.388 321.387 175.318 320.677 175.18 320.112C175.046 319.541 174.868 319.085 174.644 318.744C174.42 318.403 174.161 318.16 173.868 318.016C173.574 317.872 173.27 317.8 172.956 317.8C172.636 317.8 172.329 317.872 172.036 318.016C171.748 318.16 171.492 318.403 171.268 318.744C171.044 319.085 170.865 319.541 170.732 320.112C170.598 320.677 170.532 321.387 170.532 322.24C170.532 323.093 170.598 323.805 170.732 324.376C170.865 324.941 171.044 325.395 171.268 325.736C171.492 326.077 171.748 326.32 172.036 326.464C172.329 326.608 172.636 326.68 172.956 326.68C173.27 326.68 173.574 326.608 173.868 326.464C174.161 326.32 174.42 326.077 174.644 325.736C174.868 325.395 175.046 324.941 175.18 324.376C175.318 323.805 175.388 323.093 175.388 322.24Z" fill="#959595"/>
<path d="M218.267 231.175C220.034 230.942 221.367 230.35 222.267 229.4C223.184 228.433 223.642 227.175 223.642 225.625C223.642 224.992 223.526 224.442 223.292 223.975C223.076 223.492 222.759 223.067 222.342 222.7C221.942 222.333 221.467 222.017 220.917 221.75C220.367 221.483 219.767 221.233 219.117 221L218.267 231.175ZM216.667 204.75C215.734 204.867 214.942 205.067 214.292 205.35C213.642 205.617 213.109 205.95 212.692 206.35C212.276 206.75 211.967 207.2 211.767 207.7C211.584 208.2 211.492 208.725 211.492 209.275C211.492 209.908 211.601 210.467 211.817 210.95C212.051 211.417 212.359 211.842 212.742 212.225C213.142 212.592 213.609 212.925 214.142 213.225C214.676 213.508 215.259 213.775 215.892 214.025L216.667 204.75ZM219.592 215.225C220.792 215.592 221.984 216 223.167 216.45C224.351 216.883 225.409 217.45 226.342 218.15C227.292 218.85 228.059 219.725 228.642 220.775C229.226 221.808 229.517 223.108 229.517 224.675C229.517 226.225 229.259 227.683 228.742 229.05C228.226 230.4 227.467 231.6 226.467 232.65C225.467 233.683 224.242 234.533 222.792 235.2C221.342 235.85 219.684 236.233 217.817 236.35L217.517 240.025C217.501 240.408 217.334 240.758 217.017 241.075C216.717 241.408 216.334 241.575 215.867 241.575H213.592L214.042 236.225C212.092 235.958 210.259 235.425 208.542 234.625C206.826 233.825 205.367 232.833 204.167 231.65L206.067 228.825C206.234 228.575 206.451 228.375 206.717 228.225C207.001 228.058 207.301 227.975 207.617 227.975C207.984 227.975 208.376 228.108 208.792 228.375C209.209 228.625 209.684 228.925 210.217 229.275C210.751 229.608 211.359 229.95 212.042 230.3C212.726 230.65 213.534 230.908 214.467 231.075L215.392 219.9C214.209 219.567 213.034 219.175 211.867 218.725C210.717 218.275 209.676 217.683 208.742 216.95C207.826 216.2 207.084 215.258 206.517 214.125C205.951 212.992 205.667 211.575 205.667 209.875C205.667 208.608 205.917 207.375 206.417 206.175C206.917 204.958 207.651 203.875 208.617 202.925C209.601 201.975 210.801 201.192 212.217 200.575C213.634 199.958 215.259 199.608 217.092 199.525L217.367 196.375C217.401 195.975 217.567 195.617 217.867 195.3C218.167 194.983 218.559 194.825 219.042 194.825H221.317L220.917 199.725C222.684 200.008 224.209 200.517 225.492 201.25C226.776 201.967 227.884 202.775 228.817 203.675L227.317 205.95C227.101 206.283 226.876 206.533 226.642 206.7C226.409 206.867 226.126 206.95 225.792 206.95C225.542 206.95 225.242 206.875 224.892 206.725C224.542 206.558 224.151 206.367 223.717 206.15C223.284 205.917 222.792 205.683 222.242 205.45C221.709 205.217 221.117 205.025 220.467 204.875L219.592 215.225ZM241.646 212.975C242.446 212.808 243.213 212.692 243.946 212.625C244.679 212.542 245.388 212.5 246.071 212.5C247.971 212.5 249.646 212.783 251.096 213.35C252.546 213.917 253.763 214.7 254.746 215.7C255.729 216.7 256.471 217.875 256.971 219.225C257.471 220.558 257.721 222 257.721 223.55C257.721 225.467 257.379 227.217 256.696 228.8C256.029 230.383 255.096 231.742 253.896 232.875C252.696 233.992 251.271 234.858 249.621 235.475C247.988 236.092 246.204 236.4 244.271 236.4C243.138 236.4 242.063 236.283 241.046 236.05C240.029 235.817 239.071 235.508 238.171 235.125C237.288 234.725 236.463 234.275 235.696 233.775C234.946 233.258 234.271 232.717 233.671 232.15L235.571 229.525C235.971 228.958 236.496 228.675 237.146 228.675C237.563 228.675 237.988 228.808 238.421 229.075C238.854 229.342 239.346 229.633 239.896 229.95C240.463 230.267 241.121 230.558 241.871 230.825C242.638 231.092 243.554 231.225 244.621 231.225C245.754 231.225 246.754 231.042 247.621 230.675C248.488 230.308 249.204 229.8 249.771 229.15C250.354 228.483 250.788 227.7 251.071 226.8C251.371 225.883 251.521 224.892 251.521 223.825C251.521 221.858 250.946 220.325 249.796 219.225C248.663 218.108 246.979 217.55 244.746 217.55C243.029 217.55 241.271 217.867 239.471 218.5L235.621 217.4L238.621 199.85H256.471V202.475C256.471 203.358 256.196 204.075 255.646 204.625C255.096 205.175 254.163 205.45 252.846 205.45H242.921L241.646 212.975ZM288.25 217.925C288.25 221.075 287.908 223.817 287.225 226.15C286.558 228.467 285.625 230.383 284.425 231.9C283.242 233.417 281.833 234.55 280.2 235.3C278.583 236.033 276.833 236.4 274.95 236.4C273.067 236.4 271.317 236.033 269.7 235.3C268.1 234.55 266.708 233.417 265.525 231.9C264.342 230.383 263.417 228.467 262.75 226.15C262.083 223.817 261.75 221.075 261.75 217.925C261.75 214.758 262.083 212.017 262.75 209.7C263.417 207.383 264.342 205.467 265.525 203.95C266.708 202.433 268.1 201.308 269.7 200.575C271.317 199.825 273.067 199.45 274.95 199.45C276.833 199.45 278.583 199.825 280.2 200.575C281.833 201.308 283.242 202.433 284.425 203.95C285.625 205.467 286.558 207.383 287.225 209.7C287.908 212.017 288.25 214.758 288.25 217.925ZM281.875 217.925C281.875 215.308 281.683 213.142 281.3 211.425C280.917 209.708 280.4 208.342 279.75 207.325C279.117 206.308 278.383 205.6 277.55 205.2C276.717 204.783 275.85 204.575 274.95 204.575C274.067 204.575 273.208 204.783 272.375 205.2C271.558 205.6 270.833 206.308 270.2 207.325C269.567 208.342 269.058 209.708 268.675 211.425C268.308 213.142 268.125 215.308 268.125 217.925C268.125 220.542 268.308 222.708 268.675 224.425C269.058 226.142 269.567 227.508 270.2 228.525C270.833 229.542 271.558 230.258 272.375 230.675C273.208 231.075 274.067 231.275 274.95 231.275C275.85 231.275 276.717 231.075 277.55 230.675C278.383 230.258 279.117 229.542 279.75 228.525C280.4 227.508 280.917 226.142 281.3 224.425C281.683 222.708 281.875 220.542 281.875 217.925ZM317.254 217.925C317.254 221.075 316.912 223.817 316.229 226.15C315.562 228.467 314.629 230.383 313.429 231.9C312.246 233.417 310.837 234.55 309.204 235.3C307.587 236.033 305.837 236.4 303.954 236.4C302.071 236.4 300.321 236.033 298.704 235.3C297.104 234.55 295.712 233.417 294.529 231.9C293.346 230.383 292.421 228.467 291.754 226.15C291.087 223.817 290.754 221.075 290.754 217.925C290.754 214.758 291.087 212.017 291.754 209.7C292.421 207.383 293.346 205.467 294.529 203.95C295.712 202.433 297.104 201.308 298.704 200.575C300.321 199.825 302.071 199.45 303.954 199.45C305.837 199.45 307.587 199.825 309.204 200.575C310.837 201.308 312.246 202.433 313.429 203.95C314.629 205.467 315.562 207.383 316.229 209.7C316.912 212.017 317.254 214.758 317.254 217.925ZM310.879 217.925C310.879 215.308 310.687 213.142 310.304 211.425C309.921 209.708 309.404 208.342 308.754 207.325C308.121 206.308 307.387 205.6 306.554 205.2C305.721 204.783 304.854 204.575 303.954 204.575C303.071 204.575 302.212 204.783 301.379 205.2C300.562 205.6 299.837 206.308 299.204 207.325C298.571 208.342 298.062 209.708 297.679 211.425C297.312 213.142 297.129 215.308 297.129 217.925C297.129 220.542 297.312 222.708 297.679 224.425C298.062 226.142 298.571 227.508 299.204 228.525C299.837 229.542 300.562 230.258 301.379 230.675C302.212 231.075 303.071 231.275 303.954 231.275C304.854 231.275 305.721 231.075 306.554 230.675C307.387 230.258 308.121 229.542 308.754 228.525C309.404 227.508 309.921 226.142 310.304 224.425C310.687 222.708 310.879 220.542 310.879 217.925Z" fill="#05264C"/>
<line x1="140" y1="292.5" x2="380" y2="292.5" stroke="#C6D2E0" stroke-width="3"/>
<line x1="140" y1="292.5" x2="311" y2="292.5" stroke="#80CC23" stroke-width="3"/>
<circle cx="300" cy="291" r="13.5" fill="#199164" stroke="#C6D2E0" stroke-width="3"/>
<path d="M154.159 113H157.012V104.755H166.439V113H169.301V94.0909H166.439V102.308H157.012V94.0909H154.159V113ZM179.208 113.286C183.206 113.286 185.819 110.359 185.819 105.974C185.819 101.56 183.206 98.6335 179.208 98.6335C175.211 98.6335 172.598 101.56 172.598 105.974C172.598 110.359 175.211 113.286 179.208 113.286ZM179.218 110.969C176.605 110.969 175.386 108.688 175.386 105.964C175.386 103.25 176.605 100.942 179.218 100.942C181.812 100.942 183.031 103.25 183.031 105.964C183.031 108.688 181.812 110.969 179.218 110.969ZM191.544 113H194.35L197.231 102.761H197.444L200.324 113H203.14L207.304 98.8182H204.451L201.691 109.187H201.552L198.782 98.8182H195.929L193.141 109.233H193.002L190.223 98.8182H187.37L191.544 113ZM217.027 94.0909V113H219.741V99.3075H219.917L225.493 112.972H227.746L233.323 99.3168H233.498V113H236.213V94.0909H232.75L226.73 108.79H226.509L220.489 94.0909H217.027ZM249.123 107.119C249.132 109.528 247.341 110.673 245.79 110.673C244.081 110.673 242.9 109.436 242.9 107.506V98.8182H240.139V107.839C240.139 111.357 242.069 113.185 244.792 113.185C246.925 113.185 248.375 112.058 249.03 110.544H249.178V113H251.893V98.8182H249.123V107.119ZM261.576 113.286C264.927 113.286 267.097 111.273 267.402 108.513H264.715C264.364 110.045 263.173 110.95 261.594 110.95C259.258 110.95 257.753 109.002 257.753 105.909C257.753 102.871 259.286 100.96 261.594 100.96C263.348 100.96 264.419 102.068 264.715 103.398H267.402C267.106 100.536 264.77 98.6335 261.548 98.6335C257.55 98.6335 254.965 101.643 254.965 105.974C254.965 110.249 257.458 113.286 261.576 113.286ZM273.115 104.58C273.115 102.317 274.546 101.025 276.512 101.025C278.414 101.025 279.55 102.234 279.55 104.312V113H282.311V103.979C282.311 100.443 280.372 98.6335 277.454 98.6335C275.247 98.6335 273.918 99.5938 273.253 101.126H273.078V94.0909H270.354V113H273.115V104.58ZM296.799 113H299.68L303.659 98.8366H303.807L307.787 113H310.658L315.912 94.0909H312.902L309.227 108.744H309.051L305.22 94.0909H302.247L298.415 108.734H298.24L294.556 94.0909H291.555L296.799 113ZM322.869 113.286C326.866 113.286 329.479 110.359 329.479 105.974C329.479 101.56 326.866 98.6335 322.869 98.6335C318.871 98.6335 316.258 101.56 316.258 105.974C316.258 110.359 318.871 113.286 322.869 113.286ZM322.878 110.969C320.265 110.969 319.046 108.688 319.046 105.964C319.046 103.25 320.265 100.942 322.878 100.942C325.472 100.942 326.691 103.25 326.691 105.964C326.691 108.688 325.472 110.969 322.878 110.969ZM341.545 107.119C341.554 109.528 339.763 110.673 338.211 110.673C336.503 110.673 335.322 109.436 335.322 107.506V98.8182H332.561V107.839C332.561 111.357 334.491 113.185 337.214 113.185C339.347 113.185 340.797 112.058 341.452 110.544H341.6V113H344.314V98.8182H341.545V107.119ZM350.784 94.0909H348.024V113H350.784V94.0909ZM359.807 113.277C362.393 113.277 363.408 111.698 363.907 110.793H364.138V113H366.834V94.0909H364.073V101.117H363.907C363.408 100.24 362.466 98.6335 359.826 98.6335C356.4 98.6335 353.88 101.339 353.88 105.937C353.88 110.526 356.363 113.277 359.807 113.277ZM360.417 110.923C357.952 110.923 356.668 108.753 356.668 105.909C356.668 103.093 357.924 100.979 360.417 100.979C362.827 100.979 364.119 102.945 364.119 105.909C364.119 108.891 362.799 110.923 360.417 110.923ZM149.35 128.091H146.525V141.977H146.35L136.729 128.091H134.088V147H136.941V133.132H137.117L146.728 147H149.35V128.091ZM159.403 147.286C162.496 147.286 164.684 145.763 165.312 143.455L162.699 142.984C162.2 144.322 161 145.006 159.43 145.006C157.067 145.006 155.479 143.473 155.405 140.74H165.487V139.761C165.487 134.637 162.422 132.634 159.209 132.634C155.257 132.634 152.653 135.643 152.653 140.001C152.653 144.406 155.22 147.286 159.403 147.286ZM155.414 138.672C155.525 136.659 156.984 134.914 159.227 134.914C161.369 134.914 162.773 136.502 162.782 138.672H155.414ZM174.662 147.286C177.755 147.286 179.944 145.763 180.571 143.455L177.959 142.984C177.46 144.322 176.26 145.006 174.69 145.006C172.326 145.006 170.738 143.473 170.665 140.74H180.747V139.761C180.747 134.637 177.682 132.634 174.468 132.634C170.517 132.634 167.913 135.643 167.913 140.001C167.913 144.406 170.48 147.286 174.662 147.286ZM170.674 138.672C170.785 136.659 172.243 134.914 174.487 134.914C176.629 134.914 178.032 136.502 178.042 138.672H170.674ZM189.119 147.277C191.704 147.277 192.72 145.698 193.218 144.793H193.449V147H196.145V128.091H193.384V135.117H193.218C192.72 134.24 191.778 132.634 189.137 132.634C185.712 132.634 183.191 135.339 183.191 139.937C183.191 144.526 185.675 147.277 189.119 147.277ZM189.728 144.923C187.263 144.923 185.98 142.753 185.98 139.909C185.98 137.093 187.235 134.979 189.728 134.979C192.138 134.979 193.431 136.945 193.431 139.909C193.431 142.891 192.11 144.923 189.728 144.923ZM213.586 132.818H210.678V129.42H207.917V132.818H205.84V135.034H207.917V143.408C207.908 145.984 209.875 147.231 212.054 147.185C212.931 147.175 213.522 147.009 213.845 146.889L213.346 144.609C213.161 144.646 212.82 144.729 212.377 144.729C211.481 144.729 210.678 144.433 210.678 142.836V135.034H213.586V132.818ZM222.461 147.286C226.459 147.286 229.072 144.359 229.072 139.974C229.072 135.56 226.459 132.634 222.461 132.634C218.464 132.634 215.851 135.56 215.851 139.974C215.851 144.359 218.464 147.286 222.461 147.286ZM222.471 144.969C219.858 144.969 218.639 142.688 218.639 139.964C218.639 137.25 219.858 134.942 222.471 134.942C225.065 134.942 226.284 137.25 226.284 139.964C226.284 142.688 225.065 144.969 222.471 144.969ZM244.981 152.614C248.591 152.614 251.379 150.961 251.379 147.314V132.818H248.674V135.117H248.471C247.981 134.24 247.003 132.634 244.362 132.634C240.937 132.634 238.416 135.339 238.416 139.854C238.416 144.378 240.992 146.788 244.343 146.788C246.947 146.788 247.954 145.32 248.452 144.415H248.628V147.203C248.628 149.428 247.104 150.388 245.008 150.388C242.709 150.388 241.814 149.234 241.324 148.422L238.951 149.401C239.699 151.136 241.592 152.614 244.981 152.614ZM244.953 144.498C242.488 144.498 241.204 142.605 241.204 139.817C241.204 137.093 242.46 134.979 244.953 134.979C247.363 134.979 248.655 136.945 248.655 139.817C248.655 142.744 247.335 144.498 244.953 144.498ZM261.194 147.286C264.287 147.286 266.475 145.763 267.103 143.455L264.49 142.984C263.991 144.322 262.791 145.006 261.221 145.006C258.858 145.006 257.27 143.473 257.196 140.74H267.278V139.761C267.278 134.637 264.213 132.634 261 132.634C257.048 132.634 254.444 135.643 254.444 140.001C254.444 144.406 257.011 147.286 261.194 147.286ZM257.205 138.672C257.316 136.659 258.775 134.914 261.018 134.914C263.16 134.914 264.564 136.502 264.573 138.672H257.205ZM276.961 132.818H274.053V129.42H271.292V132.818H269.215V135.034H271.292V143.408C271.283 145.984 273.25 147.231 275.429 147.185C276.306 147.175 276.897 147.009 277.22 146.889L276.721 144.609C276.536 144.646 276.195 144.729 275.752 144.729C274.856 144.729 274.053 144.433 274.053 142.836V135.034H276.961V132.818ZM297.523 136.281C296.951 134.074 295.224 132.634 292.159 132.634C288.955 132.634 286.684 134.323 286.684 136.835C286.684 138.847 287.902 140.186 290.561 140.777L292.962 141.303C294.328 141.608 294.965 142.217 294.965 143.104C294.965 144.202 293.793 145.061 291.983 145.061C290.331 145.061 289.269 144.35 288.936 142.956L286.268 143.362C286.73 145.874 288.816 147.286 292.002 147.286C295.427 147.286 297.8 145.467 297.8 142.901C297.8 140.897 296.526 139.66 293.922 139.06L291.669 138.543C290.109 138.173 289.435 137.647 289.444 136.687C289.435 135.597 290.617 134.822 292.186 134.822C293.904 134.822 294.698 135.773 295.021 136.724L297.523 136.281ZM307.455 132.818H304.547V129.42H301.786V132.818H299.709V135.034H301.786V143.408C301.777 145.984 303.744 147.231 305.923 147.185C306.8 147.175 307.391 147.009 307.714 146.889L307.215 144.609C307.031 144.646 306.689 144.729 306.246 144.729C305.35 144.729 304.547 144.433 304.547 142.836V135.034H307.455V132.818ZM314.636 147.314C316.981 147.314 318.302 146.123 318.828 145.061H318.939V147H321.635V137.582C321.635 133.455 318.385 132.634 316.132 132.634C313.565 132.634 311.202 133.668 310.278 136.253L312.873 136.844C313.279 135.837 314.313 134.868 316.169 134.868C317.951 134.868 318.865 135.8 318.865 137.407V137.472C318.865 138.478 317.831 138.46 315.283 138.755C312.596 139.069 309.844 139.771 309.844 142.993C309.844 145.781 311.94 147.314 314.636 147.314ZM315.236 145.098C313.676 145.098 312.55 144.396 312.55 143.03C312.55 141.553 313.861 141.026 315.458 140.814C316.354 140.694 318.477 140.454 318.874 140.057V141.885C318.874 143.565 317.535 145.098 315.236 145.098ZM325.312 147H328.073V138.339C328.073 136.484 329.504 135.145 331.461 135.145C332.033 135.145 332.68 135.246 332.901 135.311V132.67C332.624 132.634 332.08 132.606 331.729 132.606C330.067 132.606 328.645 133.548 328.128 135.071H327.98V132.818H325.312V147ZM342.748 132.818H339.84V129.42H337.079V132.818H335.002V135.034H337.079V143.408C337.07 145.984 339.037 147.231 341.216 147.185C342.093 147.175 342.684 147.009 343.007 146.889L342.508 144.609C342.324 144.646 341.982 144.729 341.539 144.729C340.643 144.729 339.84 144.433 339.84 142.836V135.034H342.748V132.818ZM351.762 147.286C354.855 147.286 357.043 145.763 357.671 143.455L355.058 142.984C354.56 144.322 353.359 145.006 351.79 145.006C349.426 145.006 347.838 143.473 347.764 140.74H357.847V139.761C357.847 134.637 354.781 132.634 351.568 132.634C347.616 132.634 345.013 135.643 345.013 140.001C345.013 144.406 347.579 147.286 351.762 147.286ZM347.773 138.672C347.884 136.659 349.343 134.914 351.587 134.914C353.729 134.914 355.132 136.502 355.141 138.672H347.773ZM366.218 147.277C368.804 147.277 369.819 145.698 370.318 144.793H370.549V147H373.245V128.091H370.484V135.117H370.318C369.819 134.24 368.878 132.634 366.237 132.634C362.812 132.634 360.291 135.339 360.291 139.937C360.291 144.526 362.775 147.277 366.218 147.277ZM366.828 144.923C364.363 144.923 363.079 142.753 363.079 139.909C363.079 137.093 364.335 134.979 366.828 134.979C369.238 134.979 370.53 136.945 370.53 139.909C370.53 142.891 369.21 144.923 366.828 144.923ZM380.204 141.562H382.845V141.386C382.882 139.263 383.491 138.312 385.061 137.342C386.713 136.345 387.729 134.942 387.729 132.864C387.729 129.864 385.458 127.832 382.069 127.832C378.958 127.832 376.465 129.651 376.345 132.975H379.152C379.262 131.018 380.657 130.159 382.069 130.159C383.639 130.159 384.913 131.202 384.913 132.837C384.913 134.212 384.054 135.182 382.956 135.865C381.238 136.918 380.223 137.961 380.204 141.386V141.562ZM381.598 147.175C382.605 147.175 383.445 146.354 383.445 145.329C383.445 144.322 382.605 143.491 381.598 143.491C380.583 143.491 379.752 144.322 379.752 145.329C379.752 146.354 380.583 147.175 381.598 147.175Z" fill="#151515"/>
<path d="M194.291 76H202.428V74.0121H196.663V62.9091H194.291V76ZM208.911 76.1918C211.199 76.1918 212.772 75.0732 213.181 73.3665L211.02 73.1236C210.707 73.9545 209.94 74.3892 208.943 74.3892C207.447 74.3892 206.456 73.4048 206.437 71.7237H213.277V71.0142C213.277 67.5689 211.206 66.054 208.789 66.054C205.977 66.054 204.142 68.1186 204.142 71.1484C204.142 74.2294 205.951 76.1918 208.911 76.1918ZM206.443 70.1641C206.514 68.9112 207.441 67.8565 208.821 67.8565C210.151 67.8565 211.046 68.8281 211.059 70.1641H206.443ZM220.317 66.1818H218.38V63.8295H216.066V66.1818H214.673V67.9716H216.066V73.4304C216.053 75.2777 217.396 76.1854 219.134 76.1342C219.793 76.1151 220.247 75.9872 220.496 75.9041L220.106 74.0952C219.978 74.1271 219.716 74.1847 219.428 74.1847C218.847 74.1847 218.38 73.9801 218.38 73.0469V67.9716H220.317V66.1818ZM224.851 62.9091H223.011V64.2259C223.011 65.2678 222.601 66.0668 222.135 66.7699L223.209 67.4666C224.148 66.6868 224.851 65.3445 224.851 64.2131V62.9091ZM233.395 68.777C233.076 67.1151 231.746 66.054 229.445 66.054C227.08 66.054 225.469 67.2173 225.476 69.0327C225.469 70.4645 226.351 71.4105 228.237 71.8004L229.912 72.152C230.813 72.3501 231.235 72.7145 231.235 73.2706C231.235 73.9418 230.506 74.4467 229.407 74.4467C228.346 74.4467 227.655 73.9865 227.457 73.1044L225.201 73.3217C225.488 75.1243 227.003 76.1918 229.413 76.1918C231.868 76.1918 233.6 74.9197 233.606 73.0597C233.6 71.6598 232.699 70.8033 230.845 70.4006L229.17 70.0426C228.173 69.8189 227.777 69.4737 227.783 68.9048C227.777 68.2401 228.512 67.7798 229.477 67.7798C230.545 67.7798 231.107 68.3615 231.286 69.0071L233.395 68.777ZM249.211 67.0895H251.628C251.225 64.5199 249 62.7301 246.105 62.7301C242.679 62.7301 240.109 65.2486 240.109 69.4673C240.109 73.6094 242.564 76.179 246.175 76.179C249.416 76.179 251.736 74.0952 251.736 70.7202V69.1477H246.424V71.0014H249.442C249.403 72.8679 248.157 74.0504 246.188 74.0504C243.995 74.0504 242.493 72.4077 242.493 69.4418C242.493 66.495 244.021 64.8587 246.137 64.8587C247.716 64.8587 248.79 65.7024 249.211 67.0895ZM258.454 76.1918C260.742 76.1918 262.315 75.0732 262.724 73.3665L260.563 73.1236C260.25 73.9545 259.483 74.3892 258.486 74.3892C256.99 74.3892 255.999 73.4048 255.98 71.7237H262.819V71.0142C262.819 67.5689 260.748 66.054 258.332 66.054C255.52 66.054 253.685 68.1186 253.685 71.1484C253.685 74.2294 255.494 76.1918 258.454 76.1918ZM255.986 70.1641C256.057 68.9112 256.984 67.8565 258.364 67.8565C259.694 67.8565 260.589 68.8281 260.601 70.1641H255.986ZM269.86 66.1818H267.923V63.8295H265.609V66.1818H264.216V67.9716H265.609V73.4304C265.596 75.2777 266.939 76.1854 268.677 76.1342C269.336 76.1151 269.789 75.9872 270.039 75.9041L269.649 74.0952C269.521 74.1271 269.259 74.1847 268.971 74.1847C268.39 74.1847 267.923 73.9801 267.923 73.0469V67.9716H269.86V66.1818ZM283.836 66.5078H286.118C286.074 64.2962 284.188 62.7301 281.401 62.7301C278.652 62.7301 276.588 64.277 276.594 66.5909C276.594 68.4702 277.93 69.5504 280.084 70.1065L281.574 70.4901C282.986 70.848 283.919 71.2891 283.926 72.3054C283.919 73.424 282.858 74.1719 281.312 74.1719C279.829 74.1719 278.678 73.5071 278.582 72.1328H276.249C276.345 74.7344 278.282 76.1982 281.331 76.1982C284.469 76.1982 286.291 74.6321 286.297 72.3246C286.291 70.0554 284.418 69.0199 282.449 68.5533L281.222 68.2464C280.148 67.9908 278.985 67.5369 278.998 66.4439C279.004 65.4595 279.886 64.7372 281.369 64.7372C282.782 64.7372 283.715 65.3956 283.836 66.5078ZM293.392 66.1818H291.455V63.8295H289.141V66.1818H287.748V67.9716H289.141V73.4304C289.128 75.2777 290.471 76.1854 292.209 76.1342C292.868 76.1151 293.322 75.9872 293.571 75.9041L293.181 74.0952C293.053 74.1271 292.791 74.1847 292.503 74.1847C291.922 74.1847 291.455 73.9801 291.455 73.0469V67.9716H293.392V66.1818ZM298.332 76.1982C299.873 76.1982 300.793 75.4759 301.215 74.6513H301.292V76H303.516V69.429C303.516 66.8338 301.401 66.054 299.528 66.054C297.463 66.054 295.878 66.9744 295.367 68.7642L297.527 69.071C297.757 68.3999 298.409 67.8246 299.541 67.8246C300.614 67.8246 301.202 68.3743 301.202 69.3395V69.3778C301.202 70.0426 300.506 70.0746 298.773 70.2599C296.869 70.4645 295.047 71.0334 295.047 73.245C295.047 75.1754 296.46 76.1982 298.332 76.1982ZM298.933 74.4979C297.968 74.4979 297.278 74.0568 297.278 73.2067C297.278 72.3182 298.051 71.9474 299.087 71.8004C299.694 71.7173 300.908 71.5639 301.209 71.321V72.478C301.209 73.571 300.327 74.4979 298.933 74.4979ZM306.023 76H308.337V70.228C308.337 68.9815 309.277 68.0994 310.549 68.0994C310.939 68.0994 311.424 68.1697 311.622 68.2337V66.1051C311.412 66.0668 311.047 66.0412 310.792 66.0412C309.667 66.0412 308.727 66.6804 308.369 67.8182H308.267V66.1818H306.023V76ZM318.77 66.1818H316.833V63.8295H314.519V66.1818H313.126V67.9716H314.519V73.4304C314.506 75.2777 315.849 76.1854 317.587 76.1342C318.246 76.1151 318.7 75.9872 318.949 75.9041L318.559 74.0952C318.431 74.1271 318.169 74.1847 317.881 74.1847C317.3 74.1847 316.833 73.9801 316.833 73.0469V67.9716H318.77V66.1818ZM325.126 76.1918C327.414 76.1918 328.987 75.0732 329.396 73.3665L327.236 73.1236C326.922 73.9545 326.155 74.3892 325.158 74.3892C323.662 74.3892 322.672 73.4048 322.652 71.7237H329.492V71.0142C329.492 67.5689 327.421 66.054 325.005 66.054C322.192 66.054 320.358 68.1186 320.358 71.1484C320.358 74.2294 322.167 76.1918 325.126 76.1918ZM322.659 70.1641C322.729 68.9112 323.656 67.8565 325.037 67.8565C326.366 67.8565 327.261 68.8281 327.274 70.1641H322.659ZM335.273 76.1726C336.96 76.1726 337.721 75.169 338.085 74.4531H338.226V76H340.502V62.9091H338.181V67.8054H338.085C337.734 67.0959 337.012 66.054 335.279 66.054C333.01 66.054 331.227 67.831 331.227 71.1037C331.227 74.3381 332.959 76.1726 335.273 76.1726ZM335.919 74.2741C334.391 74.2741 333.585 72.9318 333.585 71.0909C333.585 69.2628 334.378 67.9524 335.919 67.9524C337.408 67.9524 338.226 69.1861 338.226 71.0909C338.226 72.9957 337.395 74.2741 335.919 74.2741Z" fill="#666666"/>
<circle cx="416.077" cy="96.8119" r="23.5635" fill="#CCE5D4" stroke="#C6D2E0" stroke-width="1.02807"/>
<circle cx="420.644" cy="93.0775" r="23.5635" fill="white" stroke="#C6D2E0" stroke-width="1.02807"/>
<path d="M422.098 77.9663L424.479 88.5699L424.519 88.7521L424.705 88.7695L435.526 89.7824L426.176 95.3229L426.016 95.4181L426.057 95.6003L428.437 106.204L420.279 99.0246L420.138 98.9012L419.978 98.9964L410.629 104.537L414.936 94.5593L415.01 94.3878L414.869 94.2645L406.711 87.0851L417.531 88.098L417.717 88.1154L417.791 87.9439L422.098 77.9663Z" fill="#FEC300" stroke="#C6D2E0" stroke-width="0.514036"/>
<path d="M12.7725 344.997C-13.6003 314.858 2.65937 268.658 45.0939 282.537L46.0845 310.694L49.6536 319.022L79.9917 329.73C81.578 363.676 29.2302 363.805 12.7725 344.997Z" fill="#FEF8E5"/>
<path d="M26.2577 319.815C26.2577 325.4 30.7853 329.927 36.3703 329.927C39.9892 329.927 43.1642 328.026 44.951 325.168C37.4289 325.956 36.7456 315.849 36.3774 310.402L36.3703 310.297C31.7347 311.218 26.2577 314.908 26.2577 319.815Z" fill="#FEC300"/>
<path d="M49.6588 319.022L79.9969 329.73C80.7318 345.459 69.8881 353.927 56.4005 356.616C65.4417 353.856 69.2888 338.863 70.0823 331.712L45.099 323.781L35.3822 313.073V285.511L16.1484 283.247C23.5438 279.462 33.3116 278.682 45.099 282.537L46.0896 310.694L49.6588 319.022Z" fill="#FEC300"/>
<path d="M79.9948 329.729C80.7298 345.457 69.886 353.926 56.3984 356.615C65.4396 353.854 69.2868 338.862 70.0802 331.711L79.9948 329.729Z" fill="#FE9D00"/>
<path d="M56.5963 287.295L46.0871 290.864C43.6416 297.54 38.5126 311.407 37.5608 313.469C40.2575 314.262 42.7823 319.351 43.7077 321.797L68.89 323.581C71.005 322.986 75.9886 321.479 79.0026 320.21C76.6231 303.713 63.0736 291.393 56.5963 287.295Z" fill="#80CC23"/>
<path d="M37.5593 313.469C40.256 314.263 42.7808 319.352 43.7062 321.797L46.8789 322.022C46.0858 324.062 43.4684 327.072 39.3439 322.789C33.9505 315.809 36.7587 311.553 38.837 310.297C38.2392 311.844 37.7834 312.984 37.5593 313.469Z" fill="#F3F9F5"/>
<path d="M56.5942 287.295L46.0851 290.864C52.6946 295.623 66.5086 308.829 68.888 323.581C71.003 322.986 75.9866 321.479 79.0006 320.21C76.6211 303.713 63.0716 291.393 56.5942 287.295Z" fill="#007F2A"/>
</svg>
