<svg width="56" height="56" viewBox="0 0 56 56" fill="none" xmlns="http://www.w3.org/2000/svg">
<circle cx="25" cy="25" r="25" fill="url(#paint0_linear)"/>
<path fill-rule="evenodd" clip-rule="evenodd" d="M13.8333 18.4173C13.8333 17.4048 14.6541 16.584 15.6666 16.584H52.3333C53.3458 16.584 54.1666 17.4048 54.1666 18.4173V49.584C54.1666 50.5965 53.3458 51.4173 52.3333 51.4173H15.6666C14.6541 51.4173 13.8333 50.5965 13.8333 49.584V18.4173ZM14.7499 23.0007H53.2499V49.584C53.2499 50.0903 52.8395 50.5006 52.3333 50.5006H15.6666C15.1603 50.5006 14.7499 50.0903 14.7499 49.584V23.0007ZM45.9166 19.7923C45.9166 20.5517 45.301 21.1673 44.5416 21.1673C43.7822 21.1673 43.1666 20.5517 43.1666 19.7923C43.1666 19.0329 43.7822 18.4173 44.5416 18.4173C45.301 18.4173 45.9166 19.0329 45.9166 19.7923ZM50.4999 19.7923C50.4999 20.5517 49.8843 21.1673 49.1249 21.1673C48.3656 21.1673 47.7499 20.5517 47.7499 19.7923C47.7499 19.0329 48.3656 18.4173 49.1249 18.4173C49.8843 18.4173 50.4999 19.0329 50.4999 19.7923Z" fill="#5DC3EC"/>
<path d="M20.5 33L24.5 37L20.5 41" stroke="#5DC3EC" stroke-width="1.5" stroke-linecap="round"/>
<path d="M27 41H32.5" stroke="#5DC3EC" stroke-width="1.5" stroke-linecap="round"/>
<defs>
<linearGradient id="paint0_linear" x1="0" y1="0" x2="50" y2="50" gradientUnits="userSpaceOnUse">
<stop stop-color="#72DAFE" stop-opacity="0.27"/>
<stop offset="1" stop-color="white" stop-opacity="0"/>
</linearGradient>
</defs>
</svg>
