<svg width="56" height="56" viewBox="0 0 56 56" fill="none" xmlns="http://www.w3.org/2000/svg">
<circle cx="25" cy="25" r="25" fill="url(#paint0_linear)"/>
<path fill-rule="evenodd" clip-rule="evenodd" d="M13.8333 18.4173C13.8333 17.4048 14.6541 16.584 15.6666 16.584H52.3333C53.3458 16.584 54.1666 17.4048 54.1666 18.4173V49.584C54.1666 50.5965 53.3458 51.4173 52.3333 51.4173H15.6666C14.6541 51.4173 13.8333 50.5965 13.8333 49.584V18.4173ZM14.7499 23.0007H53.2499V49.584C53.2499 50.0903 52.8395 50.5006 52.3333 50.5006H15.6666C15.1603 50.5006 14.7499 50.0903 14.7499 49.584V23.0007ZM45.9166 19.7923C45.9166 20.5517 45.301 21.1673 44.5416 21.1673C43.7822 21.1673 43.1666 20.5517 43.1666 19.7923C43.1666 19.0329 43.7822 18.4173 44.5416 18.4173C45.301 18.4173 45.9166 19.0329 45.9166 19.7923ZM50.4999 19.7923C50.4999 20.5517 49.8843 21.1673 49.1249 21.1673C48.3656 21.1673 47.7499 20.5517 47.7499 19.7923C47.7499 19.0329 48.3656 18.4173 49.1249 18.4173C49.8843 18.4173 50.4999 19.0329 50.4999 19.7923Z" fill="#7466E2"/>
<path d="M27.5833 37.1935C27.5833 40.7373 30.4561 43.6102 33.9999 43.6102C35.0529 43.6102 36.0467 43.3565 36.9234 42.907L33.5416 37.6671V30.793C30.2117 31.0279 27.5833 33.8038 27.5833 37.1935Z" fill="#7466E2"/>
<path d="M39.5267 33.1046C38.8873 32.2406 38.0543 31.5384 37.0945 31.0546C36.2714 30.6397 35.3748 30.3952 34.4583 30.334V36.7507L39.5267 33.1046Z" fill="#7466E2"/>
<path d="M40.7271 38.6108C41.0787 36.9427 40.7981 35.2034 39.9396 33.7305L34.4583 37.651L38.0365 42.7579C39.4165 41.7569 40.3754 40.279 40.7271 38.6108Z" fill="#7466E2"/>
<defs>
<linearGradient id="paint0_linear" x1="0" y1="0" x2="50" y2="50" gradientUnits="userSpaceOnUse">
<stop stop-color="#5046C7" stop-opacity="0.2"/>
<stop offset="1" stop-color="white" stop-opacity="0"/>
</linearGradient>
</defs>
</svg>
