<svg width="56" height="57" viewBox="0 0 56 57" fill="none" xmlns="http://www.w3.org/2000/svg">
<circle opacity="0.2" cx="25" cy="25" r="25" fill="url(#paint0_linear)"/>
<path fill-rule="evenodd" clip-rule="evenodd" d="M14 18.4173C14 17.4048 14.8208 16.584 15.8333 16.584H52.5C53.5125 16.584 54.3333 17.4048 54.3333 18.4173V49.584C54.3333 50.5965 53.5125 51.4173 52.5 51.4173H15.8333C14.8208 51.4173 14 50.5965 14 49.584V18.4173ZM14.9167 23.0007H53.4167V49.584C53.4167 50.0903 53.0063 50.5006 52.5 50.5006H15.8333C15.3271 50.5006 14.9167 50.0903 14.9167 49.584V23.0007ZM46.0833 19.7923C46.0833 20.5517 45.4677 21.1673 44.7083 21.1673C43.949 21.1673 43.3333 20.5517 43.3333 19.7923C43.3333 19.0329 43.949 18.4173 44.7083 18.4173C45.4677 18.4173 46.0833 19.0329 46.0833 19.7923ZM50.6667 19.7923C50.6667 20.5517 50.051 21.1673 49.2917 21.1673C48.5323 21.1673 47.9167 20.5517 47.9167 19.7923C47.9167 19.0329 48.5323 18.4173 49.2917 18.4173C50.051 18.4173 50.6667 19.0329 50.6667 19.7923Z" fill="#199164"/>
<path d="M30 33L27 36L30 39" stroke="#199164" stroke-width="1.5" stroke-linecap="round"/>
<path d="M38 39L41 36L38 33" stroke="#199164" stroke-width="1.5" stroke-linecap="round"/>
<path d="M36 32L32 41" stroke="#199164" stroke-width="1.5" stroke-linecap="round"/>
<defs>
<linearGradient id="paint0_linear" x1="0" y1="0" x2="50" y2="50" gradientUnits="userSpaceOnUse">
<stop stop-color="#199164"/>
<stop offset="1" stop-color="white" stop-opacity="0"/>
</linearGradient>
</defs>
</svg>
