<svg width="325" height="325" viewBox="0 0 325 325" fill="none" xmlns="http://www.w3.org/2000/svg">
<path d="M162.5 325C252.246 325 325 252.246 325 162.5C325 72.7537 252.246 0 162.5 0C72.7537 0 0 72.7537 0 162.5C0 252.246 72.7537 325 162.5 325Z" fill="black"/>
<path d="M188.318 70.2908C169.996 70.2908 152.084 75.6988 136.849 85.8305C121.615 95.9632 109.741 110.364 102.73 127.213C95.7178 144.062 93.8833 162.603 97.4575 180.489C101.032 198.376 109.855 214.806 122.811 227.702C135.767 240.597 152.274 249.38 170.245 252.937C176.225 254.122 182.279 254.71 188.318 254.709" stroke="white" stroke-width="35"/>
<path d="M203.505 108.082H173.131V216.919H203.505V108.082Z" fill="white"/>
</svg>
